/* XPM */
static char *a4629ff10b1e4e9a95b4e7ec47f6b3e8[] = {
/* columns rows colors chars-per-pixel */
"32 32 161 2 ",
"   c None",
".  c #0C0C09",
"X  c #120D0A",
"o  c #13110E",
"O  c #1C120D",
"+  c #151311",
"@  c #1B1612",
"#  c #1C1915",
"$  c #1B1A19",
"%  c #221A16",
"&  c #2C1D14",
"*  c #241E1A",
"=  c #2A1E1B",
"-  c #26211E",
";  c #2B211D",
":  c #342013",
">  c #3C2417",
",  c #34261D",
"<  c #3B271F",
"1  c #3A291E",
"2  c #242221",
"3  c #2C2522",
"4  c #2A2826",
"5  c #2B2A29",
"6  c #332621",
"7  c #392720",
"8  c #342A24",
"9  c #3D2D24",
"0  c #362D29",
"q  c #3B2E28",
"w  c #3F3126",
"e  c #3D322C",
"r  c #363535",
"t  c #3E3431",
"y  c #3D3D3C",
"u  c #46271C",
"i  c #402C1E",
"p  c #572F17",
"a  c #562C1A",
"s  c #592F1C",
"d  c #432D23",
"f  c #562E20",
"g  c #453126",
"h  c #493424",
"j  c #4F3B22",
"k  c #45332A",
"l  c #4A372C",
"z  c #4D392D",
"x  c #593F26",
"c  c #553D2E",
"v  c #583E2D",
"b  c #413632",
"n  c #483730",
"m  c #443933",
"M  c #453F3C",
"N  c #4C3B34",
"B  c #523D32",
"V  c #5C402E",
"C  c #46403E",
"Z  c #49413E",
"A  c #554136",
"S  c #5C4634",
"D  c #54423A",
"F  c #5E473B",
"G  c #5F483D",
"H  c #614127",
"J  c #704328",
"K  c #7D482C",
"L  c #684635",
"P  c #6F4E36",
"I  c #664738",
"U  c #604C3D",
"Y  c #744F37",
"T  c #714D3A",
"R  c #6D543B",
"E  c #745137",
"W  c #72553E",
"Q  c #7A573E",
"!  c #464647",
"~  c #534641",
"^  c #534E4C",
"/  c #55504E",
"(  c #5E5C5D",
")  c #634E44",
"_  c #6D5442",
"`  c #65534B",
"'  c #6C564C",
"]  c #6E594E",
"[  c #705445",
"{  c #7D5A44",
"}  c #715448",
"|  c #715A4A",
" . c #7B5C49",
".. c #6B5850",
"X. c #746145",
"o. c #74655A",
"O. c #606063",
"+. c #786A66",
"@. c #7B6F6B",
"#. c #746C6A",
"$. c #75706E",
"%. c #864E2C",
"&. c #844A25",
"*. c #8D512A",
"=. c #835E3A",
"-. c #905D38",
";. c #95623F",
":. c #895E45",
">. c #8C6547",
",. c #8F6946",
"<. c #8B664C",
"1. c #806B4D",
"2. c #8D694B",
"3. c #986D47",
"4. c #936444",
"5. c #826655",
"6. c #816659",
"7. c #846A5C",
"8. c #946E51",
"9. c #9D6C50",
"0. c #AD7646",
"q. c #AD794A",
"w. c #A07450",
"e. c #BD7D55",
"r. c #806D66",
"t. c #896E61",
"y. c #987B6E",
"u. c #937262",
"i. c #807A79",
"p. c #AA7F61",
"a. c #B48350",
"s. c #A58563",
"d. c #B68362",
"f. c #B98662",
"g. c #B98862",
"h. c #AE8C79",
"j. c #AD8372",
"k. c #B3957B",
"l. c #C28F5A",
"z. c #C4915D",
"x. c #C59760",
"c. c #D1A26B",
"v. c #D6AC73",
"b. c #DEAC7E",
"n. c #D4A274",
"m. c #DCB27C",
"M. c #838183",
"N. c #909094",
"B. c #CFA989",
"V. c #DFB484",
"C. c #CDB090",
"Z. c #D8BA94",
"A. c #DCB999",
"S. c #DEC49F",
"D. c #E9C293",
"F. c #ECC799",
"G. c #EACA98",
"H. c #F0C49A",
"J. c #DFC0A1",
"K. c #F1D3B0",
"L. c #FAE7C7",
/* pixels */
"                                                                ",
"                            M M 4 w                             ",
"                          ^ ! 5 $ * W                           ",
"                        M.O.y # * - ; | #.                      ",
"                        N.r @ O X X @ m $.                      ",
"                      M.r = d T 9.:.A D M.                      ",
"                  e r y @ I # $ e 5.7.6.                        ",
"                      q u <.i # 1 B.j.A.                        ",
"                        f  .3.J a e.H.J.                        ",
"                        < W z.a.z.V.D.Z.                        ",
"                      e & E x.v.G.L.L.S.L                       ",
"                    G B & : -.q.l.c.m.s.} h.                    ",
"                  ) k , 9 1 O p &.*.%.& u.t.y.                  ",
"                    4 * ; l v > s K ;.k t.o.                    ",
"                  ( - * # q l Q L 2.>.k 6.`                     ",
"                  C ; + @ = ; R ,.8.c 9 ` b +.                  ",
"                ^ 3 3 . O = 3 % H V 8 g ..= ~                   ",
"              t N B , 4 X = z 9 X P c A A % F 6.                ",
"            Z 3 q B 7 5 X ; g S j x =.{ B e n ' r.              ",
"              e z l 3 2 @ 7 v 2., h z V { k 6 )                 ",
"              4.V.C./ @ % < h z % * ; c A g P k.                ",
"              g.F.D.o.% ; 7 k w * - @ t k g g.K.                ",
"              f.n.0._ = g 6 B 8 = ; + t ; A w.b.                ",
"                d.Y X.= d 6 S # - 2 + 8 2 ) _ p.                ",
"                @.m 1.; = ; z # 3 ; o 8 8 '                     ",
"                ) A S = , ; l 2   o o 8 6 ]                     ",
"                    n , h g U     * + # 3                       ",
"                    0 % = =       3 @ % l                       ",
"                      @ 6           # o l                       ",
"                    i.] 7.          % % 7 l [                   ",
"                      ; z                                       ",
"                                                                "
};
