/* XPM */
static char *_b51853f194241b79b9d6f65b7cb26d6[] = {
/* columns rows colors chars-per-pixel */
"32 32 221 2 ",
"   c None",
".  c #1D1411",
"X  c #2D1D1B",
"o  c #281618",
"O  c #34241F",
"+  c #291C2C",
"@  c #2F1A20",
"#  c #381F27",
"$  c #352322",
"%  c #3A2325",
"&  c #3D2D24",
"*  c #3B212F",
"=  c #471F3C",
"-  c #44272B",
";  c #443126",
":  c #4D332B",
">  c #483227",
",  c #553A2D",
"<  c #54332C",
"1  c #4A2C33",
"2  c #4B243C",
"3  c #472335",
"4  c #532C39",
"5  c #543432",
"6  c #5A3236",
"7  c #5A3537",
"8  c #67393C",
"9  c #664136",
"0  c #3B1E48",
"q  c #39265B",
"w  c #352864",
"e  c #3B286A",
"r  c #3F2972",
"t  c #4A1D43",
"y  c #421C49",
"u  c #4A1D59",
"i  c #501F56",
"p  c #4A2346",
"a  c #5C2B4B",
"s  c #552848",
"d  c #4D2455",
"f  c #572554",
"g  c #563259",
"h  c #612B4B",
"j  c #622F41",
"k  c #683548",
"l  c #662C57",
"z  c #763658",
"x  c #6B3A4D",
"c  c #5F1E61",
"v  c #601E65",
"b  c #47266C",
"n  c #54266A",
"m  c #462A78",
"M  c #572678",
"N  c #5C3263",
"B  c #6B2A66",
"V  c #722867",
"C  c #6A336B",
"Z  c #77366C",
"A  c #682978",
"S  c #762A72",
"D  c #78397F",
"F  c #6A347E",
"G  c #6E434C",
"H  c #7E497A",
"J  c #7D467A",
"K  c #893474",
"L  c #845259",
"P  c #854B66",
"I  c #864D78",
"U  c #925768",
"Y  c #A96979",
"T  c #462884",
"R  c #5C2B85",
"E  c #4D2B94",
"W  c #592A95",
"Q  c #5A309C",
"!  c #50318A",
"~  c #632C84",
"^  c #6A2A8D",
"/  c #672A89",
"(  c #643689",
")  c #783787",
"_  c #662A97",
"`  c #68339B",
"'  c #4636A7",
"]  c #573BA8",
"[  c #4A38B7",
"{  c #5B38B9",
"}  c #5E2FA4",
"|  c #6A2BA9",
" . c #782DA7",
".. c #6D38A6",
"X. c #6B2CB4",
"o. c #762DB4",
"O. c #733CBD",
"+. c #7737B7",
"@. c #6A35AD",
"#. c #3844B6",
"$. c #3757B9",
"%. c #3E40AD",
"&. c #3B63BC",
"*. c #70429A",
"=. c #464CB8",
"-. c #534DB6",
";. c #7347B4",
":. c #4665BD",
">. c #6A39C7",
",. c #7A32C7",
"<. c #7B3BD3",
"1. c #6C2CC0",
"2. c #3358C8",
"3. c #3A54DA",
"4. c #3466C6",
"5. c #2869D3",
"6. c #3272D7",
"7. c #306DDB",
"8. c #3456F0",
"9. c #2C76E9",
"0. c #3561E3",
"q. c #544ACB",
"w. c #4A43D6",
"e. c #5649DA",
"r. c #4C4ECF",
"t. c #6747CA",
"y. c #6E49D8",
"u. c #7849D8",
"i. c #6659DC",
"p. c #5E60D9",
"a. c #767FD6",
"s. c #5254EA",
"d. c #735AE0",
"f. c #586CEE",
"g. c #7072EF",
"h. c #84328B",
"j. c #87348B",
"k. c #8B3FAB",
"l. c #863DA2",
"z. c #893CB7",
"x. c #844299",
"c. c #8E5494",
"v. c #8E5891",
"b. c #8E4A95",
"n. c #A45498",
"m. c #A25593",
"M. c #AC6491",
"N. c #8844AE",
"B. c #9349B7",
"V. c #8D59BD",
"C. c #9859B7",
"Z. c #8E4DB4",
"A. c #A759BA",
"S. c #BC5DBD",
"D. c #B66CB6",
"F. c #C37690",
"G. c #C569BA",
"H. c #E87FB7",
"J. c #993AC4",
"K. c #8831CE",
"L. c #A73ECB",
"P. c #9746C7",
"I. c #8B4CDA",
"U. c #AB54C7",
"Y. c #A94BDA",
"T. c #AE53CB",
"R. c #AB63C5",
"E. c #B067D5",
"W. c #9450E3",
"Q. c #AC58E4",
"!. c #B657E7",
"~. c #B94AE8",
"^. c #9A75EA",
"/. c #A764E5",
"(. c #B468E7",
"). c #B775E6",
"_. c #B46CF3",
"`. c #C55BD5",
"'. c #C858CD",
"]. c #E552D6",
"[. c #C466CB",
"{. c #C96DD6",
"}. c #CC6DD8",
"|. c #CB71C7",
" X c #E868C9",
".X c #C959F6",
"XX c #D457E9",
"oX c #CC68E5",
"OX c #C777F5",
"+X c #CC6DFA",
"@X c #2C85E5",
"#X c #7288DD",
"$X c #6B95E9",
"%X c #6787F7",
"&X c #7B86F4",
"*X c #F39C99",
"=X c #F3A39E",
"-X c #DA8EAB",
";X c #F18BA9",
":X c #F3A8B7",
">X c #948DDF",
",X c #9093F5",
"<X c #BE9DF0",
"1X c #8CB0F1",
"2X c #DF8ECC",
"3X c #EE9BD1",
"4X c #EFA3C9",
"5X c #F4ACC8",
"6X c #D688EC",
"7X c #C794FA",
"8X c #CE90F7",
"9X c #E693E8",
"0X c #E28EE9",
"qX c #C6A5F9",
"wX c #B5C9F7",
"eX c #B7D9F7",
"rX c #A5D6F3",
"tX c #B8E5F7",
"yX c #CDDCF9",
"uX c #C4E6F9",
"iX c #C1E8F9",
/* pixels */
"                                                                ",
"                                                                ",
"                          9X9X9X0X6X                            ",
"                    3X2XM.I Z C C J b.R.6X8X                    ",
"                3X-XI a l C C D ) F ( ( ( V.<X                  ",
"              4XM.a a l l S B A A A ~ ..O.] ] >XwX              ",
"            4XP h a l h f A ) k./ ^ R R Q [ r.=.a.eX            ",
"          4XP j 4 z l s f |.G.U.{.{.o.W E ' #.2.2.#XtX          ",
"        5XY 7 1 j a h p B D.b.T.C.R.,.} ] ' %.2.5.0.1X          ",
"        -X6 5 8 6 x n.n.n.D.J [.C.A.(.,.{ [ =.$.5.@X0.rX        ",
"      :XL 7 x 6 6 z S.Z Z f p ) n ~ J.!.Q.>.=.$.4.6.@X$XiX      ",
"      -X< , 8 5 5 k G.m.C + g A.C.*.r T K./.q.$.4.6.@X0.tX      ",
"      Y < 9 : : : 5 k K c.+ H k.( N.V.w m ).=.$.4.4.@X9.1X      ",
"    *XL ; 9 ; > > : $ Z c.+ H l.R m R.w r ).-.$.&.2.6.9.$XuX    ",
"    *Xk : , > ; $ X X h v.+ H A.x.R.*.w ..OX-.:.$.#.3.8.%XtX    ",
"    =X6 , , & X o X S B c.+ d h.) n q m oX_.;.=.%.[ w.f.%XiX    ",
"    =X6 5 , & . o o S B c.+ N U.U.U.;.r E Y.I.[ [ [ w.g.&XiX    ",
"    *XG : 5 & X o o V B c.+ H z.W | Y.;.e E (.y.i.f.w.g.,XuX    ",
"    *XU 1 4 O & $ % V S c.+ H k.` R +.V.w T (.{ t.i.e.s.1XyX    ",
"      F.1 1 $ $ % - l '.c.+ H T.k.B.E.! e Q ).>.{ [ w.s.1X      ",
"      ;X4 1 1 $ - 3 [.h.d + p h.) ~ b e E E.W.t.E t.r.e.eX      ",
"      ;Xm.3 a $ % h {.x.) n 0 ^ b M B.Y.!.I.<.>.{ d.p.&XyX      ",
"        H.f p 2 # 2 j.h.h.A.D XXN.A.~.K.1.<.<.u.u.g.e.wX        ",
"          G.y 2 * 3 2 t v R.j.L.B.U.K.X.X.o.>.u.y.q.,X          ",
"           XA.y p 3 = t c }.`.J.oXoXo._ W X.>.>.{ ^.qX          ",
"             XU.u p = t i /  .J. ._ _ W | X.O.@.^.7X            ",
"              ].`.^ i f p d u n n R _ | ..` O._.7X              ",
"                  XXY._ n n n A A ~ ~ _ +./.8X                  ",
"                      XX.XY.P.z.z.P.Q.OXOX                      ",
"                            .X.X+X                              ",
"                                                                ",
"                                                                "
};
