/* XPM */
static char *_1c22a82f4c14feabfe50e45741b1206[] = {
/* columns rows colors chars-per-pixel */
"32 32 9 1 ",
"  c None",
". c #33323D",
"X c #315B5D",
"o c #407769",
"O c #833F4C",
"+ c #985252",
"@ c #AE7764",
"# c #639D6D",
"$ c #92C191",
/* pixels */
" .............................. ",
".#############$################.",
".#####..###oo..o#o######..#o#o..",
"..oo##..################..#####.",
".#####oo################oo#####.",
".......X..X.XXXXXXXX............",
".oooooooooooooooooooooooooooooo.",
" .............................. ",
"  .oooo.++++++++++++++++.oooo.  ",
"  .oooo.++++++++++++++++.oooo.  ",
"  .####.++@@@@@@@@@@@@++.####.  ",
"  .####.+@@@@@@@@@@@@@@+.####.  ",
"  .####.+@@@@@@@@@@@@@@+.####.  ",
"  .##o#.+@@@@@@@@@@@@@@+.####.  ",
"  .##.#.+@@@@@@@@@@@@@@+.####.  ",
"  .##o#...O.OOOOOOOO.....####.  ",
"  .##o#.+@@@@@@@@@@@@@@+.##o#.  ",
"  .####.+@+@+OO+@@@@@@@+.##o#.  ",
"  .####.+@@@@@@@@@@@@@@+.##.#.  ",
"  .####.+@@@@@@@@@@@@@@+.##.#.  ",
"  .####.+@@@@@@@@@@@@@@+.##o#.  ",
"  .####.+@@@@@@@@@@@@@@+.####.  ",
"  .####.+@@@@@@@@@@@@@@+.##o#.  ",
"  .####.+@@@@@@@@@@@@@@+.####.  ",
" .............................. ",
".##############################.",
"..o#o#..#####$$#########..#####.",
".#####..####oo..o#######..##oo..",
".#####oo################oo#####.",
"............X..XX.XX.X..X.......",
".oooooooooooooooooooooooooooooo.",
" .............................. "
};
