/* XPM */
static char *result[] = {
/* columns rows colors chars-per-pixel */
"64 64 243 2 ",
"   c #030001",
".  c #0C0504",
"X  c #0D0C0C",
"o  c #080609",
"O  c #140E0D",
"+  c #180907",
"@  c #0E1405",
"#  c #1C110E",
"$  c #16170A",
"%  c #191614",
"&  c #150F10",
"*  c #240B07",
"=  c #24130D",
"-  c #2B150D",
";  c #2B1A0C",
":  c #2A1706",
">  c #33160D",
",  c #35190D",
"<  c #3C1C09",
"1  c #391506",
"2  c #241A16",
"3  c #341E14",
"4  c #370C07",
"5  c #1D2607",
"6  c #1E2216",
"7  c #242B09",
"8  c #36230C",
"9  c #29340C",
"0  c #283804",
"q  c #282916",
"w  c #2C3814",
"e  c #343A15",
"r  c #362C13",
"t  c #262728",
"y  c #383A37",
"u  c #333426",
"i  c #1D2027",
"p  c #441C04",
"a  c #481B04",
"s  c #531C04",
"d  c #4B0802",
"f  c #6B0200",
"g  c #721300",
"h  c #482608",
"j  c #532204",
"k  c #592607",
"l  c #583408",
"z  c #4C3217",
"x  c #632402",
"c  c #682903",
"v  c #762A04",
"b  c #663708",
"n  c #773505",
"m  c #503B2C",
"M  c #633821",
"N  c #2D4207",
"B  c #354807",
"V  c #3C530D",
"C  c #3C5505",
"Z  c #334414",
"A  c #394918",
"S  c #3E5115",
"D  c #2E4313",
"F  c #3C4627",
"G  c #3C4236",
"H  c #3C6516",
"J  c #445B0A",
"K  c #465918",
"L  c #514E13",
"P  c #784507",
"I  c #6E550D",
"U  c #496609",
"Y  c #54740C",
"T  c #57790C",
"R  c #5A7D0D",
"E  c #557604",
"W  c #4C631A",
"Q  c #53681C",
"!  c #587717",
"~  c #4E700A",
"^  c #716C15",
"/  c #454A26",
"(  c #475526",
")  c #434B37",
"_  c #565431",
"`  c #596926",
"'  c #5B7423",
"]  c #5B6335",
"[  c #657A25",
"{  c #697535",
"}  c #6C7234",
"|  c #674D2D",
" . c #393F55",
".. c #3E4242",
"X. c #464947",
"o. c #4D5257",
"O. c #555858",
"+. c #515050",
"@. c #5E674F",
"#. c #646957",
"$. c #717851",
"%. c #676A69",
"&. c #6D7574",
"*. c #757878",
"=. c #747368",
"-. c #655B53",
";. c #891A02",
":. c #863704",
">. c #8C3602",
",. c #A72801",
"<. c #B73100",
"1. c #C63A00",
"2. c #9B5701",
"3. c #8C4A07",
"4. c #B25105",
"5. c #936D0F",
"6. c #DC5402",
"7. c #D54F03",
"8. c #EC5202",
"9. c #FC7800",
"0. c #EA6B01",
"q. c #83785A",
"w. c #5D810D",
"e. c #5E8311",
"r. c #51801A",
"t. c #61850E",
"y. c #63890E",
"u. c #628412",
"i. c #678916",
"p. c #6D9414",
"a. c #6D9818",
"s. c #769A17",
"d. c #71950E",
"f. c #7CA419",
"g. c #7DA60E",
"h. c #688523",
"j. c #738A29",
"k. c #779725",
"l. c #798E34",
"z. c #7DA124",
"x. c #7C8644",
"c. c #788257",
"v. c #9A870B",
"b. c #82AB1D",
"n. c #89AC1A",
"m. c #83A817",
"M. c #8AB31E",
"N. c #94B61E",
"B. c #839A2C",
"V. c #839636",
"C. c #8BAF23",
"Z. c #85A926",
"A. c #8BB422",
"S. c #8EB922",
"D. c #93BD23",
"F. c #98B829",
"G. c #92AC33",
"H. c #A6BA36",
"J. c #B7AB08",
"K. c #CAB601",
"L. c #FA8800",
"P. c #92C21D",
"I. c #96C124",
"U. c #99C525",
"Y. c #9DCA25",
"T. c #9CC429",
"R. c #9EC929",
"E. c #A1CC25",
"W. c #A4CC2C",
"Q. c #AACD2D",
"!. c #A6C42C",
"~. c #ABD32C",
"^. c #A8D728",
"/. c #B3D92E",
"(. c #ABCC33",
"). c #ADD231",
"_. c #B4D535",
"`. c #B5D834",
"'. c #B9DA37",
"]. c #BBDB39",
"[. c #B7D73A",
"{. c #B0CF2E",
"}. c #BDE135",
"|. c #BEE039",
" X c #FDFB03",
".X c #F1E604",
"XX c #C5DA35",
"oX c #C4E838",
"OX c #CCF239",
"+X c #FFF531",
"@X c #F2D201",
"#X c #8D934E",
"$X c #95A143",
"%X c #AAB04E",
"&X c #868870",
"*X c #B6B665",
"=X c #BBD943",
"-X c #B7C948",
";X c #CADA4D",
":X c #C8E545",
">X c #D3E850",
",X c #E6F85B",
"<X c #FFFF4C",
"1X c #CFD467",
"2X c #DEE769",
"3X c #E9F766",
"4X c #FAFC77",
"5X c #E4EF6A",
"6X c #E5CD45",
"7X c #757B85",
"8X c #7E8182",
"9X c #868989",
"0X c #8A8E92",
"qX c #8C9395",
"wX c #979A99",
"eX c #8D9085",
"rX c #A2A59D",
"tX c #9598A2",
"yX c #9EA1A3",
"uX c #A4A7AB",
"iX c #AAAAB4",
"pX c #B5B7BA",
"aX c #ADB2B2",
"sX c #A29F97",
"dX c #B4C1B4",
"fX c #FFFF89",
"gX c #C7CA9B",
"hX c #B8BBC4",
"jX c #C0BECF",
"kX c #BFC2C6",
"lX c #C5C8CB",
"zX c #C7C9D5",
"xX c #D4D5D8",
"cX c #CAD3D9",
"vX c #D9DAE3",
"bX c #DCE2E6",
"nX c #E6E7EB",
"mX c #EDECF4",
"MX c #E4E6F0",
"NX c #EEF2FB",
"BX c #FFFFFF",
"VX c #F3F4F9",
"CX c #F1EFF6",
/* pixels */
"BXBXBXBXBXBXBXBXBXBXBXBXBXBXBXBXBXBXBXBXBXVXVXq...M v :.3.^ L qXBXBXBXBXBXBXBXBXBXBXBXBXBXBXBXBXBXBXBXBXBXBXBXBXBXBXBXBXBXBXBXBX",
"BXBXBXBXBXBXBXBXBXBXBXBXBXBXBXBXBXBXBXBXBXBXBXwX3 g ;.<.8.9.L.2.qXBXBXBXBXBXBXBXBXBXBXBXBXBXBXBXBXBXBXBXBXBXBXBXBXBXBXBXBXBXBXBX",
"BXBXBXBXBXBXBXBXBXBXBXBXBXBXBXBXBXVXBXBXcX&.O.+.t d ;.;.,.7.0.9.I cXBXBXBXBXBXBXBXBXBXBXBXBXBXBXBXBXBXBXBXBXBXBXBXBXBXBXBXBXBXBX",
"BXBXBXBXBXBXBXBXBXBXBXBXBXBXBXBXBXBXBX7X4 f ;.,.1.6.7.7.9.9.9.8.9.&XBXVXBXBXBXBXBXBXBXBXBXBXBXBXBXBXBXBXBXBXBXBXBXBXBXBXBXBXBXBX",
"BXBXBXBXBXBXBXBXBXBXBXBXBXBXBXBXBXxXm f 1.6.8.6.0.9.I D 2.4.3.v :._ MXBXBXBXBXBXBXBXBXBXBXBXBXBXBXBXBXBXBXBXBXBXBXBXBXBXBXBXBXBX",
"BXBXBXBXBXBXBXBXBXBXBXBXBXBXBXBXBXpXt v ,.,.l D M 6.Z P.K Z U r.r.W _ 9XhXtXxXBXBXBXBXBXBXBXBXBXBXBXBXBXBXBXBXBXBXBXBXBXBXBXBXBX",
"BXBXBXBXBXBXBXBXBXBXBXBXBXBXBXBXBXBXo.d 1.4.H ^.[ r ~ b.D.D.`.].oX}.~.s.! i.@.CXBXBXBXBXBXBXBXBXBXBXBXBXBXBXBXBXBXBXBXBXBXBXBXBX",
"BXBXBXBXBXBXBXBXBXBXBXBXBXBXBXVXBX7Xf 8.8.k T I.D.b.I.D.W.XX].[.'.`.=XoXXXOXV.lXBXBXBXBXBXBXBXBXBXBXBXBXBXBXBXBXBXBXBXBXBXBXBXBX",
"BXBXBXBXBXBXBXBXBXBXBXBXBXBXBXBXcX* v ;.3 S i.M.U.U.U.I.U.U.R./.`.'.].'.[.W.T.=.BXBXBXBXBXBXBXBXBXBXBXBXBXBXBXBXBXBXBXBXBXBXBXBX",
"BXBXBXBXBXBXBXBXBXBXBXBXVXBXBXBXq.*.t 2 r.e.f.R.S.M.b.S.D.I.S.! A.W.W.E.R.P.R.Z.9XBXBXBXBXBXBXBXBXBXBXBXBXBXBXBXBXBXBXBXBXBXBXBX",
"BXBXBXBXBXBXBXBXBXBXBXBXBXBXBXVXVX8X$ R w.R w.s.b.S.R.Q.Q.Q.W.k.A A.D.U.! ' I.W.x.cXBXBXBXBXBXBXBXBXBXBXBXBXBXBXBXBXBXBXBXBXBXBX",
"BXBXBXBXBXBXBXBXBXBXBXnXtXlXmXBXBXy J y.R R s.U._.].].].].].'.oXZ.! ^.k.' R.W.T.[ wXBXVXBXBXBXBXBXBXBXBXBXBXBXBXBXBXBXBXBXBXBXBX",
"BXBXBXBXBXBXBXBXBXVXBXtXC [ ] @.uX&.~ t.R a.U._.|.[.'.'.'.'.'.'.].F.I.I.R.[.[.|.F.#.BXBXBXBXBXBXBXBXBXBXBXBXBXBXBXBXBXBXBXBXBXBX",
"BXBXBXBXBXBXBXBXBXBXBXiXi.^.E.E.k.D U t.T f.U.).`._.`.'.}.'.'.'.].W.A.A.U.[.|.[.oXZ.qXBXBXBXBXBXBXBXBXBXBXBXBXBXBXBXBXBXBXBXBXBX",
"BXBXBXBXBXBXBXBXBXBXBXxXW a.i.[ `.].S T R f.Y.I.T.Y.S.C.M.A.D.T.~.h.Z.h.I.^.}.}.'.oX$.CXBXBXBXBXBXBXBXBXBXBXBXBXBXBXBXBXBXBXBXBX",
"BXBXBXBXBXBXBXBXBXBXBXCX( T T U D }.B.V y.i.b.b.p.B w Z L L L / A S }.k.K ' Q k._.:X#XnXBXBXBXBXBXBXBXBXBXBXBXBXBXBXBXBXBXBXBXBX",
"BXBXBXBXBXBXBXBXBXBXBXBXX.E R p.B B.G.U Y W T V 9 v.K..X X.XfX#XC f._.oX! I v.I ` %X=.VXBXBXBXBXBXBXBXBXBXBXBXBXBXBXBXBXBXBXBXBX",
"BXBXBXBXBXBXBXBXBXBXBXuX@ J u.t.U j.k.U a.W S S $ v.@X X X<XgX9 V f.).oXz.^  X X*X) bXBXBXBXBXBXBXBXBXBXBXBXBXBXBXBXBXBXBXBXBXBX",
"BXBXBXBXBXBXBXBXVXBXxX9 0 7 R t.~ k.p.Y f.R.U.Y.J 5 J J.XX$X8 B ! ! ^.}.G.6 K.+XgXuXBXVXBXBXBXBXBXBXBXBXBXBXBXBXBXBXBXBXBXBXBXBX",
"BXBXBXBXBXBXBXBXBXBXX.@ 7 5 B R i.a.R T f.U.S.U.M.B 0 @ $ @ B C.^.' z.OXV.H 9 ` L *.BXBXBXBXBXBXBXBXBXBXBXBXBXBXBXBXBXBXBXBXBXBX",
"BXBXBXBXBXBXBXBXpXG 0 K W w X D w.u.R R a.U.D.Y.z.c.' r.9Xc.M.Z.i.! % ( u K O.% O.qXxXBXBXBXBXBXBXBXBXBXBXBXBXBXBXBXBXBXBXBXBXBX",
"BXBXBXBXBXBXBX9X5 U a.Y.Y.U.` @ 7 J e.T p.U.U.U.l.NXkX] 8XO.5 A W { B.V.Z.l.V.} &X0XnXBXBXBXBXBXBXBXBXBXBXBXBXBXBXBXBXBXBXBXBXBX",
"BXBXBXBXVXBX0X5 T p.D.I.R.U.=X] 5 7 w.R u.A.z.P.x.kX&.u V a.I.`.OXOXOXoXoXOXOXoX{.` lXBXBXBXBXBXBXBXBXBXBXBXBXBXBXBXBXBXBXBXBXBX",
"BXBXBXBXBXlX5 T w.C.U.~.]._.W.1X5 7 T e.T f.k.W F S e.Y.}.:X|._.F.k.h.h.h.j.G.(.].(.eXBXBXBXBXBXBXBXBXBXBXBXBXBXBXBXBXBXBXBXBXBX",
"BXBXBXBXBXG J w.p.U.W.].'.].W.2X/ $ U y.T a.E.I.U.Y.E.Q.W.U.Z.h.h.a.z.z.A.Z.z.z.:Xl.hXBXVXBXBXBXBXBXBXBXBXBXBXBXBXBXBXBXBXBXBXBX",
"BXBXBXBXuX7 t.R M.Y.`.'.'.].Q.,Xx.@ V w.R R M.U.D.I.D.I.I.D.A.D.R.U.Y.U.U.U.Y.~.%X%.BXBXBXBXBXBXBXBXBXBXBXBXBXBXBXBXBXBXBXBXBXBX",
"BXBXBXBXO.J w.a.I.Q.].'.'.].Q.,X#X0 9 Y w.R p.U.D.I.I.I.I.I.U.I.I.I.D.I.I.I.S.).$X] mXBXBXBXBXBXBXBXBXBXBXBXBXBXBXBXBXBXBXBXBXBX",
"BXBXBXvXw T R b.T.`.'.'.'.].Q.,X#XB A B t.R T f.U.U.I.I.I.I.I.U.U.U.U.U.I.I.P.`.%X[ pXBXBXBXBXBXBXBXBXBXBXBXVXBXBXBXBXBXBXBXBXBX",
"BXBXBXuX0 y.u.D.W.'.'.'.'.].Q.3X} J R 6 Y t.R R a.S.I.U.I.D.A.b.f.a.p.f.A.Y.S.|.$XB.sXBXBXBXBXBXBXBXBXVXBXBXBXBXBXBXBXBXBXBXBXBX",
"BXVXBX*.C w.a.I.Q.].'.'.'.'.).5X/ U y.V 7 t.w.R T w.y.i.i.u.R T T T T T e.z.P.=X} H.&XCXBXBXBXBXBXBXBXBXVXnX9XyXhXxXBXBXBXBXBXBX",
"BXBXVX) E R f.U.).].'.'.'._.).1X9 E w.t.w N y.R R w.R R T w.R w.w.R w.e.w.e.P.-XW _.#XMXBXBXBXBXBXBXVXqXu u . . h | NXBXBXBXBXBX",
"BXBXVXF E w.A.I.).'.'.].:XW.>X#X0 t.R R w.9 0 w.t.R R w.w.w.w.R R w.T w.e.T ^.x.R :X#XvXBXBXBXVXBXkXu   + 8 3 = j b pXBXBXBXBXBX",
"BXBXxXw T R S.I.T.U.W.U.Y.P.3X/ C w.p.b.b.b.K 7 U y.y.e.w.w.R e.R R R R R d.V.Q [.,X%XyXBXBXBXBXwXo . % = ; 3 - , c sXBXBXBXBXBX",
"BXBX9X0 p.b.I.I.D.I.=X;X(.,X*X$ Y i.U.`.`.).^.k.Z 9 V T w.e.y.y.y.y.y.w.T K ` M.n.m.XXq.mXBXBXpX  O # = - - ; - > x =.BXBXBXBXBX",
"BXCXu E A.U.I.D.T.I.I.>X4X4X_ 0 R p.R.`.'.'.[.'.Q.k.Q A Z B S V V V K V Z [ !.!.H.g.{.$XpXBXBXG . % # - - , - - > s | NXBXBXBXBX",
"BXiX0 p.I.I.I.Q.`.[.[.T.3X2X7 B R p.Y.`.'.'.'.'.[.^.R.R.S.Z.k.j.h.h./ ! n.E.H.!.!.F.C.-X9XBXpXO & & # - , , - > > p b zXBXBXBXBX",
"BX=.5 Y b.U.W.].].[.|.W.>X4Xq B R p.I._.].'.'.`.'._.D.I.Q.|.oXoXoX[./ d.n.F.!.H.Q.(.n.>Xc.BX9X  # # & - > > = - 1 1 j sXBXVXBXBX",
"VXG U R b.U._.'.`.'.'.~.;X4Xe N R u.D.Q.].'.'.'.'.`.I.D.).'.[._.XXV.0 p.N.Q.{.!.G.Z.u.G.x.VXxX& O & & = > , = = > > s =.BXBXBXBX",
"xXe w.w.D.U._.'.'.'.].).=X4X/ 0 T T z.Y._.'.'.'.].).D.U.R.[.].[._.( C R s.j.Q L l h > - 1 *.BXO.  # & # - , - # > > p M nXBXBXBX",
"pXB y.w.M.D.D.E.Q.).`.W.=X4X9 0 Y w.W I.W.[.].'.).Y.Y.b.I./.).^.l.9 B 7 % 1 k j h h 8 s 4.^ NXlX. O & # - > , = = > 1 h aXBXBXBX",
"uXB y.T Y Y ~ ! e.a.C.P.:X4X) 7 U t.U A k.U.~.~.E.C.e.e.! h.R.-Xq X & = + O 8 l P P L s 2.&XBXBXX.  & # ; > , = = - > a =.BXBXBX",
"&.o $ # # # l z l r 7 D V.1XsX) B e.t.~ Z w Z S A w U e.T V A u   # X O = P 3.b h h h v n yXBXBXkX. & # = > , = = - > 1 z bXBXBX",
"X O O # # @ = 8 h l b > - : uX*.5 R w.w.y.T T u.s.A.a.T f.R.D.x.t . O - - 8 ; ; h h * v 5.vXBXpX%.X X & = - , - # - - > 1 tXBXVX",
"% X O O # h l P l l h 8 c 3.q.9X7 T w.R T s.R.|.}.`.Y.a.S.].}.#XuXo # # O - h p 8 z ! ` / qXy     X O O # = , - = - - > 1 _ BXBX",
"*.  = - - l l b b P 3.h n 4.&Xo.5 ~ y.e.p.U._.[._.'.U.w i.}./.c.mX... # # q K h.B k.E.;Xr   . = = & & O O # > , = - > , > 1 aXBX",
"uXo & # # : 8 ; 8 ; = a >.} qX6 t i w B e.T.|.oXoX:XT.a.D.OX/.#.BX%.  X V !.oX`.W n.C.,X{ * j k p .   & O # - - = > - 1 > 1 _ VX",
"lXO & & + = 8 p j b h v 2.&XtXX t t t t t G ( ` j.` _ ` Q ` +.u lX9X  0 n.G.Q % % n.N.=X] p < * + G O.X & & = - - = = # = = s yX",
"0X  & Z e.j.k.i.W Z q b 5.xXwX  # % % i i X.O.o...l +X6Xy 7X&.X.lXBXy 5 q X o + + w w = 4 + + X.uXBXxXX & & = = O X # = 3 h 3.| ",
"xXt J N.~.}.oXoX}./.).$.r bX%.+ 3 1 s = O + $ q t q v.^ % u + q BX&.X o O = 4 4 8 j.B.r 2 &.lXBXBXBXmX2 + # & X ; k k :.:.n 4.P ",
"BX#.E U.(.].[.`.[.'.).;X#.mXX.+ j c k j < = < s * = - - p a s m wX  O ; - + L / 5 !._.V.*.BXBXBXBXBXVXy . & X k c x n v a a v P ",
"BX@.E U.).].'.'.'.'.R.].%XlXy * k < p x k j k k a c c x k & d M O.o = = 2 6 N.[./ s.XXH.0XBXVXBXBXBXBXO.  # c :.x n v c x x n #.",
"BX&.E R.Q.'.'.'.'.'.I.3X%XpXy + ; O < h c s 1 k j k < a r [ : m o.  + % C.K d.{.[ ~ oX%XwXBXBXBXBXBXBX*.  b :., n :.c x x v | vX",
"BX9XU U.A.`.].].]._.!.4X#XjXi o Y W o , 1 X = a a * + + B.F.+ h uXqX*.S /.[ J {.-XB d.} cXBXBXBXBXVXBX9X* :.x s k k k x a m lXBX",
"BXcXZ C k.^.).~.Q.T.F.4X#XvXwX&.C U.e o [ H.O + q ! A Q {.F.e . cXBXVXe N.2Xe N.;Xu u uXBXBXBXBXBXBXBXqXs >.:.v c v k : -.bXBXBX",
"BXBXxX+.U U.).F.M.].2X] &XVXBXuX0 b.C.! ).`.k.% B n.n.n.g.N.l.t xXBXBX&.N H.) / #.xXBXBXBXBXBXBXBXBXBXvX/ s s x x s 8 qXBXBXBXBX",
"BXVXBXBXG -XfXl.g.4X*X*.BXBXBXpX7 e.U.Y.R.S.:XF C s.m.F.F.F.$.mXBXBXBXBXqX9XxXCXCXBXBXBXBXBXBXBXBXBXBXBXVXpX0X9XeX0XkXBXBXBXBXBX",
"BXBXVXBXxX#.$.) F x.%.VXBXVXBXuX0 f.I.R.|.`.-X% R m.N.!.(.F.eXBXBXBXBXBXBXBXBXBXBXBXBXBXBXBXBXBXBXBXBXBXBXBXBXBXBXBXBXBXBXBXBXBX",
"BXBXBXBXBXVXnXCXmXvXVXBXBXBXBX&XB I.I.}.|.}.$X@ d.m.n.F.N.! pXBXVXBXBXBXBXVXBXBXBXBXBXBXBXBXBXBXBXBXBXBXBXBXBXVXVXBXBXBXBXBXBXBX",
"BXBXBXBXBXBXBXBXBXBXBXBXBXVXBX*.B I.I.R.W.S.X.i U m.m.j.[ Q eXBXBXBXBXBXBXBXBXBXBXBXBXBXBXBXBXBXBXBXBXBXBXBXBXBXBXBXBXBXBXBXBXBX",
"BXBXBXBXBXBXBXBXBXBXBXBXBXBXBXwX5 p.I.T.z.l.k.t 2 m.n.B.G.(.K 7XBXBXBXBXBXBXBXBXBXBXBXBXBXBXBXBXBXBXBXBXBXBXBXBXBXBXBXBXBXBXBXBX",
"BXBXBXBXBXBXBXBXBXBXBXBXBXBXBXiX0 M.I.`.oXoXT.{ } R s.( F K A ( mXBXBXBXBXBXBXBXBXBXBXBXBXBXBXBXBXBXBXBXBXBXBXBXBXBXBXBXBXBXBXBX",
"BXBXBXBXBXBXBXBXBXBXBXBXBXVXBX0XB R.Y.R.F.z./ Z.` N E m.s.Y J %.BXBXBXBXBXBXBXBXBXBXBXBXBXBXBXBXBXBXBXBXBXBXBXBXBXBXBXBXBXBXBXBX",
"BXBXBXBXBXBXBXBXBXBXBXBXBXBXBXaX5 U U w.h.S s.F 9XqX@.A ( y &XBXBXBXBXBXBXBXBXBXBXBXBXBXBXBXBXBXBXBXBXBXBXBXBXBXBXBXBXBXBXBXBXBX",
"BXBXBXBXBXBXBXBXBXBXBXBXBXBXBXBXlX9X0X*.D G ) lXBXBXBXvXvXNXBXBXBXBXBXBXBXBXBXBXBXBXBXBXBXBXBXBXBXBXBXBXBXBXBXBXBXBXBXBXBXBXBXBX"
};
