/* XPM */
static char *char1741861329[] = {
/* columns rows colors chars-per-pixel */
"64 64 246 2 ",
"   c #030001",
".  c #0C0504",
"X  c #0D0C0C",
"o  c #080609",
"O  c #140E0D",
"+  c #1A0C0C",
"@  c #160704",
"#  c #0E1405",
"$  c #1C120E",
"%  c #16170A",
"&  c #1A1412",
"*  c #181815",
"=  c #150F10",
"-  c #240B07",
";  c #24130D",
":  c #2B150D",
">  c #2B1B0C",
",  c #2A1706",
"<  c #33160D",
"1  c #35190D",
"2  c #3C1C09",
"3  c #391506",
"4  c #241A16",
"5  c #341E13",
"6  c #370C07",
"7  c #1D2607",
"8  c #1E2216",
"9  c #242B09",
"0  c #36230C",
"q  c #29340C",
"w  c #283804",
"e  c #282916",
"r  c #2C3814",
"t  c #343A15",
"y  c #362C13",
"u  c #262728",
"i  c #343B26",
"p  c #383A37",
"a  c #322B27",
"s  c #1C2028",
"d  c #441C04",
"f  c #481B04",
"g  c #531C04",
"h  c #4C0802",
"j  c #6B0200",
"k  c #6C1600",
"l  c #482608",
"z  c #532204",
"x  c #5B2404",
"c  c #572808",
"v  c #583408",
"b  c #4C3216",
"n  c #632402",
"m  c #692903",
"M  c #762A04",
"N  c #663708",
"B  c #773505",
"V  c #4F3B2B",
"C  c #633820",
"Z  c #2C4207",
"A  c #354807",
"S  c #3C530C",
"D  c #3C5504",
"F  c #334414",
"G  c #3C4C1B",
"H  c #374716",
"J  c #3E5115",
"K  c #2E4313",
"L  c #3C4627",
"P  c #3C4236",
"I  c #3C6516",
"U  c #435C0D",
"Y  c #465A05",
"T  c #465918",
"R  c #514E13",
"E  c #784507",
"W  c #6E560D",
"Q  c #4D6B0D",
"!  c #476408",
"~  c #54740C",
"^  c #57790C",
"/  c #5A7C0D",
"(  c #557604",
")  c #4C631A",
"_  c #53681C",
"`  c #597617",
"'  c #4E700A",
"]  c #716C15",
"[  c #454A26",
"{  c #475526",
"}  c #565A27",
"|  c #434B37",
" . c #555137",
".. c #596926",
"X. c #5B7423",
"o. c #5B6335",
"O. c #667926",
"+. c #697535",
"@. c #6A6F33",
"#. c #674D2D",
"$. c #393F55",
"%. c #3E4242",
"&. c #474A48",
"*. c #4D5257",
"=. c #555857",
"-. c #515051",
";. c #5E6653",
":. c #6D7452",
">. c #676A6A",
",. c #777266",
"<. c #6D7474",
"1. c #757779",
"2. c #6E726E",
"3. c #645B53",
"4. c #871801",
"5. c #863704",
"6. c #8C3602",
"7. c #A62801",
"8. c #B73000",
"9. c #C63A00",
"0. c #9B5701",
"q. c #8C4A07",
"w. c #B25105",
"e. c #936D0F",
"r. c #DC5402",
"t. c #D54F03",
"y. c #EB5202",
"u. c #FC7800",
"i. c #E96B01",
"p. c #867B4F",
"a. c #5D810E",
"s. c #5E8311",
"d. c #53801C",
"f. c #61850E",
"g. c #63890E",
"h. c #618412",
"j. c #6A8D14",
"k. c #658717",
"l. c #6D9414",
"z. c #6D9818",
"x. c #739915",
"c. c #779B18",
"v. c #71950E",
"b. c #7CA419",
"n. c #7DA60E",
"m. c #678423",
"M. c #738A29",
"N. c #779725",
"B. c #778B33",
"V. c #7CA124",
"C. c #7C8544",
"Z. c #788257",
"A. c #7F8168",
"S. c #9A860B",
"D. c #82AB1D",
"F. c #89AC1A",
"G. c #83A717",
"H. c #8AB31E",
"J. c #94B61E",
"K. c #829A2C",
"L. c #839636",
"P. c #808B3E",
"I. c #84AB24",
"U. c #88A926",
"Y. c #8BB422",
"T. c #8EB922",
"R. c #93BD23",
"E. c #98B829",
"W. c #92AC33",
"Q. c #A6BA36",
"!. c #B7AB08",
"~. c #CAB601",
"^. c #FA8800",
"/. c #92C21D",
"(. c #96C124",
"). c #99C525",
"_. c #9DCA25",
"`. c #9CC429",
"'. c #9EC929",
"]. c #A1CC25",
"[. c #A4CC2C",
"{. c #AACD2D",
"}. c #A6C42C",
"|. c #ABD32C",
" X c #A8D728",
".X c #B3D92E",
"XX c #ADCD31",
"oX c #AACB34",
"OX c #ADD231",
"+X c #B4D535",
"@X c #B5D834",
"#X c #B9DA37",
"$X c #BBDB39",
"%X c #B7D73A",
"&X c #B0CF2E",
"*X c #BDE135",
"=X c #BEE039",
"-X c #FDFB03",
";X c #F1E704",
":X c #C5DA35",
">X c #C2E536",
",X c #C5E939",
"<X c #CBF138",
"1X c #D1F83C",
"2X c #FFF531",
"3X c #F2D201",
"4X c #8D934E",
"5X c #95A143",
"6X c #AAB04E",
"7X c #878971",
"8X c #B6B665",
"9X c #B7C948",
"0X c #BBD943",
"qX c #CADA4D",
"wX c #C8E545",
"eX c #D3E850",
"rX c #E6F85B",
"tX c #FFFF4C",
"yX c #CFD467",
"uX c #DEE669",
"iX c #E9F766",
"pX c #FBFC77",
"aX c #E4EF6A",
"sX c #E5CD45",
"dX c #777D87",
"fX c #868989",
"gX c #8C9193",
"hX c #989C99",
"jX c #898E92",
"kX c #9598A2",
"lX c #9CA0A3",
"zX c #B5B7B8",
"xX c #A6A7AE",
"cX c #A1A89F",
"vX c #B4C1B4",
"bX c #FFFF89",
"nX c #C7CA9B",
"mX c #BABBC9",
"MX c #C0BECF",
"NX c #BFC2C2",
"BX c #C5C8CC",
"VX c #CCCFD7",
"CX c #FEFFFF",
"ZX c #ECEEF7",
"AX c #D7DDE3",
"SX c None",
/* pixels */
"SXSXSXSXSXSXSXSXSXSXSXSXSXSXSXSXSXSXSXSXSXSXSXSXV C M 5.q.] R gXSXSXSXSXSXSXSXSXSXSXSXSXSXSXSXSXSXSXSXSXSXSXSXSXSXSXSXSXSXSXSXSX",
"SXSXSXSXSXSXSXSXSXSXSXSXSXSXSXSXSXSXSXSXSXSXSXSX5 j 4.8.y.u.^.0.SXSXSXSXSXSXSXSXSXSXSXSXSXSXSXSXSXSXSXSXSXSXSXSXSXSXSXSXSXSXSXSX",
"SXSXSXSXSXSXSXSXSXSXSXSXSXSXSXSXSXSXSXSXSXdX=.-.a h 4.4.7.t.i.u.W SXSXSXSXSXSXSXSXSXSXSXSXSXSXSXSXSXSXSXSXSXSXSXSXSXSXSXSXSXSXSX",
"SXSXSXSXSXSXSXSXSXSXSXSXSXSXSXSXSXSXSXdX6 j 4.7.9.t.i.t.u.u.u.y.^.7XSXSXSXSXSXSXSXSXSXSXSXSXSXSXSXSXSXSXSXSXSXSXSXSXSXSXSXSXSXSX",
"SXSXSXSXSXSXSXSXSXSXSXSXSXSXSXSXSXSX&.j 9.r.y.r.i.u.W K q.t.q.M 5.} SXSXSXSXSXSXSXSXSXSXSXSXSXSXSXSXSXSXSXSXSXSXSXSXSXSXSXSXSXSX",
"SXSXSXSXSXSXSXSXSXSXSXSXSXSXSXSXSXSXa M 7.7.c F C r.A /.) K I d.d._  .fXmXkXSXSXSXSXSXSXSXSXSXSXSXSXSXSXSXSXSXSXSXSXSXSXSXSXSXSX",
"SXSXSXSXSXSXSXSXSXSXSXSXSXSXSXSXSXSX-.h t.7.I  X` y Q D.Y.(.@X$X>X*X{.c.` k.;.SXSXSXSXSXSXSXSXSXSXSXSXSXSXSXSXSXSXSXSXSXSXSXSXSX",
"SXSXSXSXSXSXSXSXSXSXSXSXSXSXSXSXSXp.j y.t.C ^ R.(.D.(.(.[.=X#X#X#X#X%X,X>X1XL.BXSXSXSXSXSXSXSXSXSXSXSXSXSXSXSXSXSXSXSXSXSXSXSXSX",
"SXSXSXSXSXSXSXSXSXSXSXSXSXSXSXSXBX- M 4.1 I g.Y.(._.`.(.(.`.'. X@X#X$X#X@XoX`.2.SXSXSXSXSXSXSXSXSXSXSXSXSXSXSXSXSXSXSXSXSXSXSXSX",
"SXSXSXSXSXSXSXSXSXSXSXSXSXSXSXSX1.1.u 4 ^ a.b.'.T.H.I.T.(.(.T.X.Y.[.[.'.[.R.'.U.SXSXSXSXSXSXSXSXSXSXSXSXSXSXSXSXSXSXSXSXSXSXSXSX",
"SXSXSXSXSXSXSXSXSXSXSXSXSXSXSXSXSXfX% s.f./ a.b.D.T.'.[.{.[.[.V.H Y.(.(._ d.(.[.C.SXSXSXSXSXSXSXSXSXSXSXSXSXSXSXSXSXSXSXSXSXSXSX",
"SXSXSXSXSXSXSXSXSXSXSXSXkXBXSXSXSXp D g./ / x.).+X=X$X$X$X$X#X,XU.X. XN.X.'.[.`.O.SXSXSXSXSXSXSXSXSXSXSXSXSXSXSXSXSXSXSXSXSXSXSX",
"SXSXSXSXSXSXSXSXSXSXSXSXD m.} ;.xX<.' s.^ l.).@X$X#X#X#X@X@X%X%X=XE.(.R.[.%X=X=XE.;.SXSXSXSXSXSXSXSXSXSXSXSXSXSXSXSXSXSXSXSXSXSX",
"SXSXSXSXSXSXSXSXSXSXSXxXk..X'._.c.r ! h.^ D.).OX@X@X@X#X*X=X=X@X$X'.T.Y.`.@X@X%X<XU.SXSXSXSXSXSXSXSXSXSXSXSXSXSXSXSXSXSXSXSXSXSX",
"SXSXSXSXSXSXSXSXSXSXSXSX) z.k.m.@X*XG ^ / b.'.(.].).T.I.b.Y.R.). Xm.U.m.(. X*X*X+X:X:.SXSXSXSXSXSXSXSXSXSXSXSXSXSXSXSXSXSXSXSXSX",
"SXSXSXSXSXSXSXSXSXSXSXSX{ a.` ! K *XK.S g.j.D.D.j.A r H R W R [ H J *XN.J X.X.N.%X<X4XSXSXSXSXSXSXSXSXSXSXSXSXSXSXSXSXSXSXSXSXSX",
"SXSXSXSXSXSXSXSXSXSXSXSX-.' s.j.A K.W.U ~ Q ~ H e S.~.;X-X;XbX4XD b.@X*X` W S._ _ 6XSXSXSXSXSXSXSXSXSXSXSXSXSXSXSXSXSXSXSXSXSXSX",
"SXSXSXSXSXSXSXSXSXSXSXcX# U f.a.! M.N.Q b.) G S 7 S.3X-X-XtXnX9 S b.OX>XI.] -X-X8X&.SXSXSXSXSXSXSXSXSXSXSXSXSXSXSXSXSXSXSXSXSXSX",
"SXSXSXSXSXSXSXSXSXSXAXq w 9 / f.' N.l.^ b._.)._.! % R !.:X5X9 A X.` |.$XW.% ~.2XnXxXSXSXSXSXSXSXSXSXSXSXSXSXSXSXSXSXSXSXSXSXSXSX",
"SXSXSXSXSXSXSXSXSXSX&.# 9 7 A a.k.x.^ ^ b.(.(.).T.A w # % # R D. X` U.,XW.U q ..R 1.SXSXSXSXSXSXSXSXSXSXSXSXSXSXSXSXSXSXSXSXSXSX",
"SXSXSXSXSXSXSXSXSXP w T ) r X K a.a.s./ z.(.(.).V.A.X.^ jXZ.H.I.m...8 { i ) *.8 =.gXSXSXSXSXSXSXSXSXSXSXSXSXSXSXSXSXSXSXSXSXSXSX",
"SXSXSXSXSXSXSXfX7 ! x.(._.(...% 9 U a.^ l.).)._.N.ZXvX..fX=.7 H _ O.K.K.K.L.L.@.7XfXSXSXSXSXSXSXSXSXSXSXSXSXSXSXSXSXSXSXSXSXSXSX",
"SXSXSXSXSXSXSX7 ^ l.R.(.[.(.0Xo.7 9 a./ s.Y.V./.C.MX<.i S k.).+X,X1X,X,X,X<X<X,XXX@.SXSXSXSXSXSXSXSXSXSXSXSXSXSXSXSXSXSXSXSXSXSX",
"SXSXSXSXSXSX7 / a.Y.(.OX$X+X%X9X7 9 ^ s./ b.N.) L { ` _.*X,X=X+XE.N.m.m.m.M.U.XX#X&XSXSXSXSXSXSXSXSXSXSXSXSXSXSXSXSXSXSXSXSXSXSX",
"SXSXSXSXSXP Y s.z.(.[.$X@X$X|.uX[ % Q f.^ l.].).)._.].[.[.).U.m.m.z.V.V.Y.V.V.Y.wXB.SXSXSXSXSXSXSXSXSXSXSXSXSXSXSXSXSXSXSXSXSXSX",
"SXSXSXSXSX9 f.a.Y._.@X#X#X$X[.iXC.# A f./ / Y.(.(.(.R.(.(.R.Y.R.'.'._.).).).(.OX6X>.SXSXSXSXSXSXSXSXSXSXSXSXSXSXSXSXSXSXSXSXSXSX",
"SXSXSXSX=.D a.l.(.XX$X#X#X$X[.rX4Xw r ^ s./ l.).(.(.(.(.(.).(.(.(.(.(.(.(.(./.OX5X-.SXSXSXSXSXSXSXSXSXSXSXSXSXSXSXSXSXSXSXSXSXSX",
"SXSXSXSXr / a.D.).@X#X#X#X#X|.iX4XA H A f./ / b.).(.(.(.(.(.(.).).).(.).(.(.T.%X6XO.SXSXSXSXSXSXSXSXSXSXSXSXSXSXSXSXSXSXSXSXSXSX",
"SXSXSXSXw g.h.R.[.#X#X#X#X#X{.iX+.Y / 9 ~ / / / x.T.(.(.(.(.Y.D.b.x.z.x.Y.'./.%X5XK.hXSXSXSXSXSXSXSXSXSXSXSXSXSXSXSXSXSXSXSXSXSX",
"SXSXSX1.D h.z.(.[.$X#X#X#X$X{.iX[ ! g.S q h./ h.^ a.f.j.j.s./ ^ ^ ^ ^ ^ a.b./.0X+.Q.7XSXSXSXSXSXSXSXSXSXSXSXSXSXSXSXSXSXSXSXSXSX",
"SXSXSX&.( a.b.(.OX#X#X#X#X+XOXyXq ^ / g.r w g./ / a./ ^ ^ a./ a.a.a.a.a.a.k./.9X..+X4XSXSXSXSXSXSXSXSXgXp y . o l #.SXSXSXSXSXSX",
"SXSXSXL ( a.Y.(.+X#X#X$XwX}.eX4Xw g./ / / q w f.h./ s.a.a.a.a.a.a.s.a.a.a.^  XC./ wX4XSXSXSXSXSXSXSXa   o l 5 ; c B SXSXSXSXSXSX",
"SXSXSXr / / T.(.(.'.'.R._.(.aX[ Y a.l.D.D.b.T 9 ! s.g.a./ / / / ^ a./ / / z.K...%XrXQ.kXSXSXSXSXhXo . & ; > 5 : 1 n SXSXSXSXSXSX",
"SXSXfXw j.D.(.(.(.E.0XeXoXrX8X7 ~ k.(.@X@XOX XN.F q S ^ a.g.g.g.g.s.f.f.^ T ) H.F.G.qXp.SXSXSXzX  $ & $ : : < : 1 n p.SXSXSXSXSX",
"SXSXi ' T._.(.(.(.`.(.eXpXpX} w ^ l.'.@X$X$X%X$X|.N._ G H S J S S S ! J A O.XXQ.E.G.&X5XSXSXSX&.. & ; ; : 1 : : : g #.SXSXSXSXSX",
"SXSXw l.(.R.(.[.@X$X+X).iXuX9 A ^ l._.@X$X#X#X$X#X|._.`.Y.U.N.B.m.m.L ` F.}.}.}.Q.E.J.9XfXSXzX= O = ; : 1 1 : < < d N SXSXSXSXSX",
"SX2.9 ~ D.(.[.$X#X#X$X[.eXpXr Z ^ l.(.@X#X#X#X#X#X+X(.R.[.>X,X,X,X%X[ v.F.E.Q.}.}.{.F.eX4XSXfX  & O + : 1 < ; : 3 < z SXSXSXSXSX",
"SXP ! / D.).+X#X#X#X$XXXqXpXi w a.f.(.{.$X#X#X#X#X@X(.R.OX$X+X+X>XL.w j.J.&X{.}.E.I.s.W.:.ZXAX= O & = ; : 1 ; ; 3 < g ,.SXSXSXSX",
"SXt a.a.R.).+X#X$X$X$XOX0XpXb w ^ ^ b.'.OX#X$X@X$XXXT.(.'.@X*X*X+X[ Y / b.M._ b b l 1 : 3 1.CX=.  & O $ : 1 : & < < f C SXSXSXSX",
"SXA f.f.H.R.(.'.|.OXOX[.0XpXt w ~ a.) (.|.@X#X$XOX_._.Y.(..XOX XB.q Z 9 $ 3 v c c l 0 g w.] ZXBX. O O $ : 1 1 ; ; < 1 l SXSXSXSX",
"SXA f.^ ~ ' ' ` s.z.Y./.wXpX| q ! h.Q G N.(.|.|.].I.k.a.` d.(.6Xe X O - @ O 0 v R E N z 0.7XCXCX&.  = $ ; 1 1 ; ; : < f SXSXSXSX",
"SX. % $ & ; v b l 0 q K L.yXhX| A s.f.' F r F J H r Q s.^ J H i o $ X O ; E q.B c l l m B lXCXCXNXo O $ : : 1 ; ; : < 2 b SXSXSX",
"X = O $ $ # , 0 v v N < : , lX1.7 a.a.a.f.^ ^ s.c.Y.x.^ b.'.R.4Xs . = : > 0 > > l l ; M e.AXCXzX>.X O O ; : 1 : & : : < d SXSXSX",
"* X O O $ l v E v v l 5 m q.p.jX7 / a./ ^ x.[.=X=X@X_.z.(.$X#X4XxXX $ $ = : l d 0 b X.X.[ gXp     X O O & ; 1 : ; : : < 6 -.SXSX",
"SX  & : : v v N N E q.l 5.e.A.*.% ' g.s.l.'.%X+X@X$X`.r k.=X@XZ.ZXp . ; + e T m.F z._.qXy   o ; ; = = O O $ 1 1 ; : : 3 < 3 SXSX",
"SX. = $ $ : 0 > 5 > > f 6.] kX8 u 8 r G s.(.=X,X,X=X`.l.).,X|.;.CX2.  X S }.*X&XT F.Y.rX+.- z z d .   O O $ : : ; 1 : 3 < 3  .SX",
"SX= O + O ; 0 d l N d B 0.7XkXX u a u u u P { ..M...} o._ ..o.p BXfX  w F.W._ 8 % F.J.0X} f 2 6 @ %.=.X = = ; : : ; ; + ; : f SX",
"SX  % t O.N.z.k.) F e m 0.AXhX  * * * * s &.=.*.%.v 2XsXp dX<.&.BXCXp 7 e X o + ; r r : 3 @ O &.SXSXSXO = = ; ; = X $ 4 5 l q.#.",
"SXe S (.|.*X*X,X>X.XoX:.y AX>.@ 5 2 g , O O % e u e S.] * a @ e CX<.X o @ ; : 6 0 j.K.y 4 SXSXSXSXSXSX4 O $ O X > c n 5.5.B w.E ",
"SX>.( ).OX%X#X+X%X$XOXwX:.ZX&.@ z n z z 2 ; 2 g - ; : : 2 z g V hX  + : : + R [ 9 }.#XP.dXSXSXSXSXSXSXp . = X c m n B M l f B N ",
"SX;.( _.+X#X#X#X#X$X`.%X6XNXp - n 2 d m x z z x d n n m x = d C *.o 4 : 4 8 F.:X[ c.:XQ.fXSXSXSXSXSXSX=.  & B M n B M n m n B SX",
"SX2.( '.{.#X#X$X#X#X`.iX4XmXp - 4 = 2 d m g 2 x z x 2 f y O.- C *.  . & Y.T v.&XO.Q ,X6XhXSXSXSXSXSXSX1.  B M 2 B 5.M x n B C SX",
"SXfX! (.T.@X$X$X$X+X[.pX6XVXs o ^ _ o 1 3 X ; d f ; + + K.E.+ 5 SXSXSXJ #XO.U &XqXA v.@.SXSXSXSXSXSXSXjX@ 6.n g x c x x f b SXSX",
"SXSXF Y z.|.OXOX[.}.Y.pX4XSXSX>.D (.r o O.Q.O + e ` A _ &XE.t @ SXSXSXt E.eXt J.qXu i SXSXSXSXSXSXSXSXgXg 6.5.B m m c , 3.SXSXSX",
"SXSXSX*.! _.oXE.H.0XuXo.7XSXSXSXw D.Y.` +X.XB.* A G.F.F.G.J.B.u SXSXSX1.Z Q. .| ;.SXSXSXSXSXSXSXSXSXSXSXV g g n n n l SXSXSXSXSX",
"SXSXSXSX| 9XbXB.n.pX8XdXSXSXSXSX9 s.(.].'.H.wXL Y c.G.E.E.E.:.SXSXSXSXSXSXSXSXSXSXSXSXSXSXSXSXSXSXSXSXSXSXSXSXfXfXSXSXSXSXSXSXSX",
"SXSXSXSXSXSXSX| G C.SXSXSXSXSXxXw b.).[.=X@X9X* / G.J.Q.&XE.SXSXSXSXSXSXSXSXSXSXSXSXSXSXSXSXSXSXSXSXSXSXSXSXSXSXSXSXSXSXSXSXSXSX",
"SXSXSXSXSXSXSXSXSXSXSXSXSXSXSXfXZ (.(.@X#X,XW.# j.G.F.E.J.X.SXSXSXSXSXSXSXSXSXSXSXSXSXSXSXSXSXSXSXSXSXSXSXSXSXSXSXSXSXSXSXSXSXSX",
"SXSXSXSXSXSXSXSXSXSXSXSXSXSXSX1.A (.(.'.[.E.| s Q F.G.c.O._ fXSXSXSXSXSXSXSXSXSXSXSXSXSXSXSXSXSXSXSXSXSXSXSXSXSXSXSXSXSXSXSXSXSX",
"SXSXSXSXSXSXSXSXSXSXSXSXSXSXSXhX9 z.(.`.U.M.B.u > G.G.K.W.&XT dXSXSXSXSXSXSXSXSXSXSXSXSXSXSXSXSXSXSXSXSXSXSXSXSXSXSXSXSXSXSXSXSX",
"SXSXSXSXSXSXSXSXSXSXSXSXSXSXSXxXw H.(.@X,X,X_.+.+./ c.{ L G G { SXSXSXSXSXSXSXSXSXSXSXSXSXSXSXSXSXSXSXSXSXSXSXSXSXSXSXSXSXSXSXSX",
"SXSXSXSXSXSXSXSXSXSXSXSXSXSXSXjXZ  X_.'.E.V.L U.X.w ( G.c.^ ! >.SXSXSXSXSXSXSXSXSXSXSXSXSXSXSXSXSXSXSXSXSXSXSXSXSXSXSXSXSXSXSXSX",
"SXSXSXSXSXSXSXSXSXSXSXSXSXSXSXzX7 ! ! a.m.G V.L SXSX=.J { p SXSXSXSXSXSXSXSXSXSXSXSXSXSXSXSXSXSXSXSXSXSXSXSXSXSXSXSXSXSXSXSXSXSX",
"SXSXSXSXSXSXSXSXSXSXSXSXSXSXSXSXSXSXSX1.H L | SXSXSXSXSXSXSXSXSXSXSXSXSXSXSXSXSXSXSXSXSXSXSXSXSXSXSXSXSXSXSXSXSXSXSXSXSXSXSXSXSX"
};
