/* XPM */
static char *result[] = {
/* columns rows colors chars-per-pixel */
"64 64 221 2 ",
"   c #160B06",
".  c #1C0E06",
"X  c #130D09",
"o  c #1B0E09",
"O  c #1D1109",
"+  c #1A150B",
"@  c #1B1C13",
"#  c #210F08",
"$  c #200F07",
"%  c #231206",
"&  c #2A1507",
"*  c #251209",
"=  c #2A140A",
"-  c #2D1A0A",
";  c #251A0B",
":  c #3A1406",
">  c #341B0A",
",  c #3A1E0A",
"<  c #311808",
"1  c #2A1E16",
"2  c #2E270C",
"3  c #3E220A",
"4  c #38250E",
"5  c #242413",
"6  c #2C2C16",
"7  c #2A2818",
"8  c #392611",
"9  c #342C14",
"0  c #3B2A16",
"q  c #2F3019",
"w  c #33341A",
"e  c #3B3C1D",
"r  c #383719",
"t  c #322A25",
"y  c #38342A",
"u  c #2F2924",
"i  c #421505",
"p  c #571903",
"a  c #43220B",
"s  c #4B240C",
"d  c #4C2C0C",
"f  c #462B0C",
"g  c #532B0D",
"h  c #5B2C0D",
"j  c #50250A",
"k  c #4C350D",
"l  c #54330C",
"z  c #5B330D",
"x  c #5C390D",
"c  c #4C2610",
"v  c #462C11",
"b  c #453715",
"n  c #573913",
"m  c #652809",
"M  c #7B2A07",
"N  c #63330E",
"B  c #69340F",
"V  c #643D0E",
"C  c #6C3C0D",
"Z  c #653310",
"A  c #6C3611",
"S  c #643C13",
"D  c #713711",
"F  c #733A11",
"G  c #7B3D11",
"H  c #723E0C",
"J  c #3F401E",
"K  c #3F4121",
"L  c #57450F",
"P  c #41421F",
"I  c #4B4718",
"U  c #564819",
"Y  c #545115",
"T  c #77450C",
"R  c #69580B",
"E  c #75590D",
"W  c #684615",
"Q  c #714512",
"!  c #794713",
"~  c #6E4E12",
"^  c #776C15",
"/  c #434521",
"(  c #464823",
")  c #494C24",
"_  c #484828",
"`  c #524C25",
"'  c #4E5126",
"]  c #4F5129",
"[  c #515326",
"{  c #53542A",
"}  c #56592A",
"|  c #5A5D2C",
" . c #585824",
".. c #49473C",
"X. c #5D5E31",
"o. c #5E533B",
"O. c #524E3B",
"+. c #625828",
"@. c #685F37",
"#. c #634F22",
"$. c #5D622D",
"%. c #5E6034",
"&. c #62652E",
"*. c #6A6225",
"=. c #636433",
"-. c #656A31",
";. c #696D33",
":. c #6C6B3A",
">. c #67673A",
",. c #716E35",
"<. c #6E7335",
"1. c #6D7038",
"2. c #717636",
"3. c #717837",
"4. c #73753A",
"5. c #757B39",
"6. c #7A7D3C",
"7. c #7B763C",
"8. c #73702D",
"9. c #5A5551",
"0. c #4E4746",
"q. c #777744",
"w. c #66655A",
"e. c #70714C",
"r. c #74726F",
"t. c #9B3709",
"y. c #893008",
"u. c #824412",
"i. c #894815",
"p. c #865318",
"a. c #985817",
"s. c #985511",
"d. c #AE4A12",
"f. c #B44B12",
"g. c #AD5416",
"h. c #96680D",
"j. c #877308",
"k. c #906C0E",
"l. c #A86C0F",
"z. c #B36E15",
"x. c #847930",
"c. c #C55918",
"v. c #CA671C",
"b. c #D46B1C",
"n. c #DE7421",
"m. c #E17921",
"M. c #837F47",
"N. c #7D823D",
"B. c #7D802F",
"V. c #7D8046",
"C. c #AC9403",
"Z. c #81853E",
"A. c #85873C",
"S. c #A29839",
"D. c #CEB009",
"F. c #E78322",
"G. c #DD8A1C",
"H. c #F6DA03",
"J. c #EACC00",
"K. c #FFE502",
"L. c #FCE310",
"P. c #F3D331",
"I. c #838542",
"U. c #858A41",
"Y. c #8A8D43",
"T. c #8D8C4B",
"R. c #86844A",
"E. c #928E4B",
"W. c #8D9244",
"Q. c #8E9049",
"!. c #929646",
"~. c #949947",
"^. c #93954B",
"/. c #959B49",
"(. c #9A9D4B",
"). c #9A994A",
"_. c #999B55",
"`. c #A19D56",
"'. c #9DA34D",
"]. c #9EA152",
"[. c #A1A54F",
"{. c #A2A84F",
"}. c #A3A352",
"|. c #A4AA50",
" X c #AAAC53",
".X c #ABA95A",
"XX c #ADB154",
"oX c #B2B456",
"OX c #B3B55A",
"+X c #B6B859",
"@X c #BDBE5B",
"#X c #B9B65E",
"$X c #B5AD5B",
"%X c #878778",
"&X c #91936D",
"*X c #BDBB64",
"=X c #BBB765",
"-X c #B1AF60",
";X c #C0BF5C",
":X c #D8B548",
">X c #C1BE65",
",X c #BFC05D",
"<X c #BEC061",
"1X c #C0C05D",
"2X c #FEEB41",
"3X c #C3C464",
"4X c #CAC969",
"5X c #CDD06A",
"6X c #D3D36E",
"7X c #DCDC74",
"8X c #DDDA75",
"9X c #CBC477",
"0X c #E6DE74",
"qX c #DFE076",
"wX c #E6E57A",
"eX c #8B8B85",
"rX c #ACADA5",
"tX c #EEEC81",
"yX c #F8F685",
"uX c #CFCFC8",
"iX c None",
/* pixels */
"iXiXiXiXiXiXiXiXiXiXiXiXiXiXiXiXiXiXiXiXiXiXiXiX: h G i.a.k.E iXiXiXiXiXiXiXiXiXiXiXiXiXiXiXiXiXiXiXiXiXiXiXiXiXiXiXiXiXiXiXiXiX",
"iXiXiXiXiXiXiXiXiXiXiXiXiXiXiXiXiXiXiXiXiXiXiXiX: M t.f.b.m.F.z.iXiXiXiXiXiXiXiXiXiXiXiXiXiXiXiXiXiXiXiXiXiXiXiXiXiXiXiXiXiXiXiX",
"iXiXiXiXiXiXiXiXiXiXiXiXiXiXiXiXiXiXiXiXiXiX: : i m t.t.c.n.F.m.l.iXiXiXiXiXiXiXiXiXiXiXiXiXiXiXiXiXiXiXiXiXiXiXiXiXiXiXiXiXiXiX",
"iXiXiXiXiXiXiXiXiXiXiXiXiXiXiXiXiXiXiXiXp y.t.d.f.v.v.v.m.F.F.m.G.R iXiXiXiXiXiXiXiXiXiXiXiXiXiXiXiXiXiXiXiXiXiXiXiXiXiXiXiXiXiX",
"iXiXiXiXiXiXiXiXiXiXiXiXiXiXiXiXiXiX: M f.c.v.v.m.F.p.+.a.z.a.i.a.R iXiXiXiXiXiXiXiXiXiXiXiXiXiXiXiXiXiXiXiXiXiXiXiXiXiXiXiXiXiX",
"iXiXiXiXiXiXiXiXiXiXiXiXiXiXiXiXiXiX: M d.d.F #.p.v.+.W.=. .-.2.3.-.' iXiXiXiXiXiXiXiXiXiXiXiXiXiXiXiXiXiXiXiXiXiXiXiXiXiXiXiXiX",
"iXiXiXiXiXiXiXiXiXiXiXiXiXiXiXiXiXiX: M c.a.&./.2.U ;.!.).(.oX@X+X@X{.W.N.V.%.iXiXiXiXiXiXiXiXiXiXiXiXiXiXiXiXiXiXiXiXiXiXiXiXiX",
"iXiXiXiXiXiXiXiXiXiXiXiXiXiXiXiXiX: y.c.c.! ;.'.(.W.'.[.oX;X;X;X;X;X,X,X,X,X].iXiXiXiXiXiXiXiXiXiXiXiXiXiXiXiXiXiXiXiXiXiXiXiXiX",
"iXiXiXiXiXiXiXiXiXiXiXiXiXiXiXiXiXi M y.n } N.'.|.|.|.|.|.|.XXXX+X@X;X@X@X+XXX>.iXiXiXiXiXiXiXiXiXiXiXiXiXiXiXiXiXiXiXiXiXiXiXiX",
"iXiXiXiXiXiXiXiXiXiXiXiXiXiXiXiXiXo * v &.3.W.'.'./.'.'.|.|.'.N.~.XXoXXX|.'. X_.iXiXiXiXiXiXiXiXiXiXiXiXiXiXiXiXiXiXiXiXiXiXiXiX",
"iXiXiXiXiXiXiXiXiXiXiXiXiXiXiXiXiXiX8 -.5.<.N.W.(.{. XoXOXoXXXY.$.!.|.'.<.6.[.XXQ.iXiXiXiXiXiXiXiXiXiXiXiXiXiXiXiXiXiXiXiXiXiXiX",
"iXiXiXiXiXiXiXiXiXiXiXiXiXiXiXiXiXO [ <.<.2.U.|.+X@X1X@X,X,X@X@X!.6.|.W.5.{.XX|.^.iXiXiXiXiXiXiXiXiXiXiXiXiXiXiXiXiXiXiXiXiXiXiX",
"iXiXiXiXiXiXiXiXiXiXiXiX$.1.| _ iX6 -.5.3.Z.{.+X,X1X@X1X@X@X@X1X@X'.'.'.|.,X@X@X].} iXiXiXiXiXiXiXiXiXiXiXiXiXiXiXiXiXiXiXiXiXiX",
"iXiXiXiXiXiXiXiXiXiXiXiX5.|.|.'.U.' $.<.2.W.|.OX+X@X+X@X@X@X@X,X@X X'.'.|.@X;X;X>X}.iXiXiXiXiXiXiXiXiXiXiXiXiXiXiXiXiXiXiXiXiXiX",
"iXiXiXiXiXiXiXiXiXiXiXiX| Z.N.5.'. X$.-.5.W.|.|.|.'./.W.W.!.'. X|.I./.N.'. X+X@X@X1XI.iXiXiXiXiXiXiXiXiXiXiXiXiXiXiXiXiXiXiXiXiX",
"iXiXiXiXiXiXiXiXiXiXiXiX( <.<.$.}  XU.$.<.N.!.W.5. .Y R ^ j.^ *.' $. XY.-.;.2.Y.OX4X_.iXiXiXiXiXiXiXiXiXiXiXiXiXiXiXiXiXiXiXiXiX",
"iXiXiXiXiXiXiXiXiXiXiXiX6 -.2.3.} U.~.$.;.$.;.' J C.C.J.K.H.0Xx.$.Y.+X+X8.j.C.^ x.OXq.iXiXiXiXiXiXiXiXiXiXiXiXiXiXiXiXiXiXiXiXiX",
"iXiXiXiXiXiXiXiXiXiXiXiX5 ' 2.2.$.N.N.;.N.-.$.] J j.D.K.K.2X9X` } A.+X,X!.^ J.L.$X_ iXiXiXiXiXiXiXiXiXiXiXiXiXiXiXiXiXiXiXiXiXiX",
"iXiXiXiXiXiXiXiXiXiXiXq r r ;.2.<.U.N.<.W.'.'.'.$.J R C.D.).Y [ <.<.XX,X~.L D.L.9XiXiXiXiXiXiXiXiXiXiXiXiXiXiXiXiXiXiXiXiXiXiXiX",
"iXiXiXiXiXiXiXiXiXiX@ q r 6 / ;.5.N.2.<.W.|.|.'./.} K J K K } W.'.<.Y.+XW. .I ^ ^ iXiXiXiXiXiXiXiXiXiXiXiXiXiXiXiXiXiXiXiXiXiXiX",
"iXiXiXiXiXiXiXiXiX6 J } $.J 5 K -.3.3.3.U.|.|.|.'.V.V.w.V.V.A.V.N.$.P $.{ %.w...w.eXiXiXiXiXiXiXiXiXiXiXiXiXiXiXiXiXiXiXiXiXiXiX",
"iXiXiXiXiXiXiXiXJ $.N.'.'.'.:.6 w } <.<.N.'.|.|.&XuXrXV.eXw.K } -.V.Q.).).^.^.q.&XeXiXiXiXiXiXiXiXiXiXiXiXiXiXiXiXiXiXiXiXiXiXiX",
"iXiXiXiXiXiXiXK ;.N.'.|.XXXX@X4.q J <.<.B.'././.&XrXV...9.V./.XX@X@X,X@X@X@X,X<X=XT.iXiXiXiXiXiXiXiXiXiXiXiXiXiXiXiXiXiXiXiXiXiX",
"iXiXiXiXiXiXw -.3./.|.oX,X@X,X*XJ q -.<.<.W.V.<.%.w.V./.,X<X,X,X'.W.U.N.U.Y.'.OX@X=XiXiXiXiXiXiXiXiXiXiXiXiXiXiXiXiXiXiXiXiXiXiX",
"iXiXiXiXiX6 } 2.A.{.XX,X@X,X@X7X-.6 $.<.<.N.'.'.'.{.|.oXXXXX/.V.U.U.W./././.!.'.3XT.iXiXiXiXiXiXiXiXiXiXiXiXiXiXiXiXiXiXiXiXiXiX",
"iXiXiXiXiXJ <.3.'.|.@X,X,X@X+XwXT.q ( <.<.N.'.{.{.{.{.{.{.{.'.{.|.|.|.|.|.|.{.OX=X_ iXiXiXiXiXiXiXiXiXiXiXiXiXiXiXiXiXiXiXiXiXiX",
"iXiXiXiX5 $.3.V.|.XX,X,X,X,X@XwX].J J $.3.<.N.'.{.|.{.|.|.{.|.{.|.|.|.|.|.{.{.+X-X:.iXiXiXiXiXiXiXiXiXiXiXiXiXiXiXiXiXiXiXiXiXiX",
"iXiXiXiXe ;.3.~.|.@X@X,X,X,X+XqX].} P ' <.3.N.A.{.|.{.|.|.{.|.{.|.[.{.{.|.|.'.=X.XE.iXiXiXiXiXiXiXiXiXiXiXiXiXiXiXiXiXiXiXiXiXiX",
"iXiXiXiX) <.5.'.XX,X;X@X1X@X+XqXT.} $.J $.2.3.3.N.'.'.'.'.'./.W.V.V.V.W.'.'.|.,X`.}.iXiXiXiXiXiXiXiXiXiXiXiXiXiXiXiXiXiXiXiXiXiX",
"iXiXiX5 | 3.U.{.oX,X1X@X1X,X=X0X:.$.2.' J ;.3.3.<.N.N.N.N.N.<.N.B.<.B.<.3.W.|.<XE..XM.iXiXiXiXiXiXiXiXiXiXiXiXiXiXiXiXiXiXiXiXiX",
"iXiXiXw -.3.W.|.+X,X@X;X@X@X1X5X] ;.2.<.( P <.3.3.3.<.<.<.B.<.<.N.<.3.<.<.N.{.<X6.OXE.iXiXiXiXiXiXiXiXiX% 4 < & l V iXiXiXiXiXiX",
"iXiXiXw ;.5./.|.+X@X@X,X1X+X6X}.' <.<.2.<.J P ;.3.<.3.3.<.<.<.<.B.<.<.<.<.N.{.^.Z.4X`.iXiXiXiXiXiXiXX * < d a , h T iXiXiXiXiXiX",
"iXiXiXe <.5.'.|.|. XOXXXXX+X0X>.} 3.Z.~.~.Y.$.P } <.3.3.2.2.3.3.;.<.B.-.N.N.V.V.;X8X;XiXiXiXiXiXiX. * = < a s a s T iXiXiXiXiXiX",
"iXiXiX' N.~.{.{.|. X<X5X4X7X*X/ &.N.{.+X@XoX XZ.[ ( } -.<.<.3.3.;.N.N.N.$.$.N./.(.).>XM.iXiXiXiX# = = > , a s 3 s H x iXiXiXiXiX",
"iXiXq ;./.{.{.{.|.XXXX6XyXyX4./ ;.N.{.,X,X,X@X@X|.U.;.} ' [ } | } } } K ' N.'.|.}.!.oX$XiXiXiX. # = > , a c c , s N C iXiXiXiXiX",
"iXiXJ N.'.{.{.XX,X,X+X+XtX7X) ) <.A.{.@X,X@X;X1X1XoX|.'./.~.W.Z.N.V.$.-.W.|.|.XX X}.(.>XiXiXiX$ = = > a c c a a s h H iXiXiXiXiX",
"iX5 / ;.~.{.XX,X,X,X,XoX7XwX} _ <.N.'.,X1X;X@X@X1X+X{.{.oX,X1X1X@XXX=.N./. X X X X X).4XR.iXiX* = = = a c c , a s j T iXiXiXiXiX",
"iXq $.<./.|.@X,X,X@X,XoX6XtXX.( ;.N.'.oX@X;X1X;X@X@X X|.oX1X1X@X*X^.] 5.'.{. X[.^.U.7.).q.iXiX. = = = , a c , , s s N l iXiXiXiX",
"iXe <.5.'.{.+X,X,X,X,X+X5XtX=.I <.3.W.|.+X1X;X;X@X+X{.{.XX@X1X@XOX=.] <.N.7.*.W U n f v S k iXo # = = > a c a < a s h x iXiXiXiX",
"iX) 2.5./.'.'.{.XXoX+XoX4XtXX.y $.3.$./.XX@X@X;X+XXX{./.'.oX+X+XU.K e 9 4 d L x x x g m l.k.iXiXo # * = , c c < 3 i j N iXiXiXiX",
"iX( -.&.&.&.-.;.<.N.A.'.5XtX] w $.3.$.$.N.'.{.XX[.Y.5.5.<.5.(._.r O = - % & f L T ! Q C l.~ iXiXo # # > , c c > > a s z d iXiXiX",
"X ; ; 2 2 4 n n L k b I ^.4XiX6 ' <.3.$.) J ) ' ' ) -.<.<.$.X.] o # . $ 4 T p.T x x z G h.iXiXiXiX# # = , c c , > 3 a d z iXiXiX",
"O * * & % & 3 k l V Q f v W iX5 ( <.<.3.<.<.<.N.Y.!.U.5.W.'.'.R.X . * , 3 f a a l l d ! h.iXiXiXX X # # > a c 3 > a i s z iXiXiX",
"X   . * < l W T Q W x g G a.E @ J -.3.2.2.W.{.+X;X+X{.Z.'.@X,X^.iX. = & & 3 k l f U ,.x.L iXX . # o o * = , c a > 3 a s d d iXiX",
"X # - , a x L C W ! p.N i.z.L @ w } 1.4.N.'.,X,X;X;X}.} N.@X@XR.iXo * & - b &.4.{ N.|.>X` . = , > * . . = > a a > a 3 s s l iXiX",
"iX# = & & 3 f f d d s N s.k.iXt y y y _ <.'.oX,X;X>X(.N./.@XXX>.iXo % O [ (. X'.&.!. X6Xx., g Z j = . . # < i v , a a s s j d iX",
"iX* = & 4 0 f l x x g u.l.E iX7 t y y y y O.>.:.q.,.x.x.-.e.e.0.iXiXX e N.Y.@.9 2 I./..X@.j c s > O X . * - , , , > < < : a V iX",
"iX. ; I <.A.A.6.-.[ U ! h.iXiX* & ; 1 1 u ..9.9.0.W P.:X@.w.9.0.iXiXX 5 9 ; . & > b ( v a , = O iXiXiX# = = > < % * > a d V a.V ",
"iX@ } ~.XX@X,X@X@XoXXXQ.L iXo > a g h 3 & ; 1 t t b h.k.0 t a = iXX   . & : , a f 7.E.` * iXiXiXiXiXiX. & = * # , Z F u.u.u.a.p.",
"iX7 <.{.+X1X@X1X@X1X,X3Xq.iXo , Z D A Z g a g h i a d d g g Z c iX. & , , 8 ` +.I ~.$X^.@ iXiXiXiXiXiXo * * = z F F u.! Z A i.! ",
"iX7 3.{.+X;X@X,X1X1XoX3X-XiXO 3 Z s z D A Z A A z F D D Z 8 g g X . < , 0 e Q.XX&.A.#X=XiXiXiXiXiXiXiXo * - S y.G u.u.G D D i.n ",
"iX5 2.|.oX@X1X,X@X@XoXwX*XiX. > 8 2 s h D h g Z Z Z c g n :.v c X . . 9 Y.>.x. XA.8.oX*XiXiXiXiXiXiXiXX % A u.h G i.y.S D i.S iX",
"iXiX-./.'.+X,X@X,X+X=XyX=XiX  + } $.- s g 4 , g g a & f Z.Y.8 i iXiXiX)  XR.-. X#X .A.6.iXiXiXiXiXiXiXiXa i.G B A B A A n n iXiX",
"iXiX/ $.Z.XX+X+XXXXXOXtX.XiXiX1 | W.P > ,.Y.0 < 0 =.` ;. X(.` = iXiXiX/ ~.>X| E.*Xe 2 iXiXiXiXiXiXiXiXiXA i.u.! G D Z 0 8 iXiXiX",
"iXiXiX5 $. X<X|.'.4X8XT.=.iXiXiX( Y.W.2. XoXI.w ) W.W.!.~.'.7.. iXiXiXiXX..X{ _ X.iXiXiXiXiXiXiXiXiXiXiXs N A G G F g iXiXiXiXiX",
"iXiXiXiX_ <XtX_.W.wX4XiXiXiXiXiXK 5.{.|.XXXX=X[ } A.~.[.[. Xq.iXiXiXiXiXiXiXiXiXiXiXiXiXiXiXiXiXiXiXiXiXiXiXiXiXiXiXiXiXiXiXiXiX",
"iXiXiXiXiX>.M.] ] T.>.iXiXiXiXiX) W.|.oX,X,X-X/ ;.!.(. X X.XiXiXiXiXiXiXiXiXiXiXiXiXiXiXiXiXiXiXiXiXiXiXiXiXiXiXiXiXiXiXiXiXiXiX",
"iXiXiXiXiXiXiXiXiXiXiXiXiXiXiXiX} /.|.+X,X,X^.q 2.W.).[.~.6.iXiXiXiXiXiXiXiXiXiXiXiXiXiXiXiXiXiXiXiXiXiXiXiXiXiXiXiXiXiXiXiXiXiX",
"iXiXiXiXiXiXiXiXiXiXiXiXiXiXiXiX} /.|.XXXX].=.@ $.A.W.Y.x.1.iXiXiXiXiXiXiXiXiXiXiXiXiXiXiXiXiXiXiXiXiXiXiXiXiXiXiXiXiXiXiXiXiXiX",
"iXiXiXiXiXiXiXiXiXiXiXiXiXiXiXiX( N.|.|.(.Y.I._ ( A.W.T.E.).=.iXiXiXiXiXiXiXiXiXiXiXiXiXiXiXiXiXiXiXiXiXiXiXiXiXiXiXiXiXiXiXiXiX",
"iXiXiXiXiXiXiXiXiXiXiXiXiXiXiXiX' W.|.+X@X@X].V.q.<.Z.e.>.X.{ _ iXiXiXiXiXiXiXiXiXiXiXiXiXiXiXiXiXiXiXiXiXiXiXiXiXiXiXiXiXiXiXiX",
"iXiXiXiXiXiXiXiXiXiXiXiXiXiXiXiX] /.{.|.[.W.e.U.5.} ;.B.6.-.} iXiXiXiXiXiXiXiXiXiXiXiXiXiXiXiXiXiXiXiXiXiXiXiXiXiXiXiXiXiXiXiXiX",
"iXiXiXiXiXiXiXiXiXiXiXiXiXiXiXiXe $.-.<.4.>.V.{ iXiXq / / q iXiXiXiXiXiXiXiXiXiXiXiXiXiXiXiXiXiXiXiXiXiXiXiXiXiXiXiXiXiXiXiXiXiX",
"iXiXiXiXiXiXiXiXiXiXiXiXiXiXiXiXiXiXiX5 K w w iXiXiXiXiXiXiXiXiXiXiXiXiXiXiXiXiXiXiXiXiXiXiXiXiXiXiXiXiXiXiXiXiXiXiXiXiXiXiXiXiX"
};
