/* XPM */
static char *result[] = {
/* columns rows colors chars-per-pixel */
"64 64 43 1 ",
"  c #0E770D",
". c #0F7A0D",
"X c #107E0E",
"o c #10840F",
"O c #118C0F",
"+ c #128E10",
"@ c #139310",
"# c #149B11",
"$ c #16A312",
"% c #17AA13",
"& c #18AE13",
"* c #19B414",
"= c #1DBA14",
"- c #21BF15",
"; c #25C115",
": c #2AC516",
"> c #2EC817",
", c #2CC618",
"< c #2FC918",
"1 c #32CB19",
"2 c #39CF1D",
"3 c #3AD01E",
"4 c #3ED221",
"5 c #42D524",
"6 c #47D827",
"7 c #46D628",
"8 c #47D828",
"9 c #4CDB2C",
"0 c #50DD2E",
"q c #53DE32",
"w c #56E034",
"e c #58E236",
"r c #5DE43B",
"t c #60E63E",
"y c #63E641",
"u c #65E943",
"i c #69EA46",
"p c #6CEA4A",
"a c #70EB4E",
"s c #75EC53",
"d c #79EC56",
"f c #7AEC58",
"g c None",
/* pixels */
"gggggggggggggggggggggggggggggggggggggggggggggggggggggggggggggggg",
"gggggggggggggggggggggggggggggggggggggggggggggggggggggggggggggggg",
"gggggggggggggggggggggggggggggggggggggggggggggggggggggggggggggggg",
"gggggggggggggggggggggggggggggggggggggggggggggggggggggggggggggggg",
"gggggggggggggggggggggggggggggggggggggggggggggggggggggggggggggggg",
"gggggggggggggggggggggggggggggggggggggggggggggggggggggggggggggggg",
"gggggggggggggggggggggggggggggggggggggggggggggggggggggggggggggggg",
"gggggggggggggggggggggggggggggggggggggggggggggggggggggggggggggggg",
"gggggggggggggggggggggggggggggggggggggggggggggggggggggggggggggggg",
"gggggggggggggggggggggggggggggggggggggggggggggggggggggggggggggggg",
"gggggggggggggggggggggggggggggggggggggggggggggggggggggggggggggggg",
"gggggggggggggggggggggggggggggggggggggggggggggggggggggggggggggggg",
"gggggggggggggggggggggggggggggggggggggggggggggggggggggggggggggggg",
"gggggggggggggggggggggggggggggggggggggggggggggggggggggggggggggggg",
"gggggggggggggggggggggggggggggggggggggggggggggggggggggggggggggggg",
"gggggggggggggggggggggggggggggggggggggggggggggggggggggggggggggggg",
"gggggggggggpdfddssssssssdfffffdqqdfffffdssssssssffffpggggggggggg",
"gggggggggguisdsapppipipppssfssq55qsfssspppppipppsssduugggggggggg",
"gggggggggrtrpspitrtrrruuipssy722337ysspiuyrtrttyipspttrggggggggg",
"ggggggggrrrrtaurreeerrrtuppe411,<<14qppurrreeweeripyrrrrgggggggg",
"ggggggggeeeeeutew900qwerur81<,::-,,<16ritrww900wwyueweeegggggggg",
"gggggggq000qwrrw99990wrr041,:;;;-,-:><40rrw99999wrrwqq00wggggggg",
"gggggg9966689qrw9999qee62<::;;-----:;>136wew9999wrq9866890gggggg",
"ggggg985535689ew099ww932<::;;-------:::1139ww909we986444569ggggg",
"gggg66553345660ewwwq5211,::;;=------>>>>1216wwqweq6655334666gggg",
"ggg555533344556eee932111,>:;;-;;---->-->112<38wew655533344565ggg",
"gg55455434445450w51111>11,::::::>->->111<11<116wq5353534445445gg",
"g3333323333333331:>>:::;::::;:;:->->-->-::::,,>1332333333333333g",
"g<>>><>><1>><<>:================-*-*-===*===*===>>>><<<>>>>><>>g",
"gg>>>>>><111<<>>-============;===-=--==-=======;>><<1<1<>>>><<gg",
"gggg::>><11111>>:=======-=;--------------===*==:<<11111>>:>>gggg",
"ggggg:::<111111>,;=*====----------------======;><<11111>:::ggggg",
"gggggg::>><<1<<>>:======----------------======:><<1111>>::gggggg",
"ggggggg::><><<<>>:-=====-----;----------=====-::><1<>>:::ggggggg",
"gggggggg;:>:<<>>::;-=====---------------=====;::>>>>:::;gggggggg",
"ggggggggg;;::>::::;======-------------=-====-:::::::::;ggggggggg",
"gggggggggg:;;::::;:-=======------------*==*=;;;:::;;;;gggggggggg",
"ggggggggggg-;:;;-:;-=**=======----=-=**=*=*=;;;::;;;;ggggggggggg",
"gggggggggggg;=-;;;--==****=======-==-*=***=-----;;--gggggggggggg",
"ggggggggggggg==-----==&***======*===*=*&&&=------==ggggggggggggg",
"ggggggggggggggg==-====*%%&**===*===****&%*====-==ggggggggggggggg",
"gggggggggggggggg======*%$%&***====***%%$%*======gggggggggggggggg",
"ggggggggggggggggg===**=&$$$&&*******%$$$******=ggggggggggggggggg",
"gggggggggggggggggg&&=**&$#$$&&&&**%%$$#$******gggggggggggggggggg",
"ggggggggggggggggggg&%%%%$###$$%&%%$$###$%%%%%ggggggggggggggggggg",
"gggggggggggggggggggg$$$$$#@###$$$$$##@#$$$$$gggggggggggggggggggg",
"ggggggggggggggggggggg#####@+@######@@@#####ggggggggggggggggggggg",
"gggggggggggggggggggggg@##@@O+###@#@OO@@#@#gggggggggggggggggggggg",
"ggggggggggggggggggggggg@@@@OOOOO+OOOO@@@@ggggggggggggggggggggggg",
"ggggggggggggggggggggggggg++OooOOOOooO++ggggggggggggggggggggggggg",
"ggggggggggggggggggggggggggOoooooooooOOgggggggggggggggggggggggggg",
"gggggggggggggggggggggggggggooXXXXXXooggggggggggggggggggggggggggg",
"ggggggggggggggggggggggggggggoXXXXXXogggggggggggggggggggggggggggg",
"gggggggggggggggggggggggggggggX....Xggggggggggggggggggggggggggggg",
"gggggggggggggggggggggggggggggg....gggggggggggggggggggggggggggggg",
"ggggggggggggggggggggggggggggggg  ggggggggggggggggggggggggggggggg",
"gggggggggggggggggggggggggggggggggggggggggggggggggggggggggggggggg",
"gggggggggggggggggggggggggggggggggggggggggggggggggggggggggggggggg",
"gggggggggggggggggggggggggggggggggggggggggggggggggggggggggggggggg",
"gggggggggggggggggggggggggggggggggggggggggggggggggggggggggggggggg",
"gggggggggggggggggggggggggggggggggggggggggggggggggggggggggggggggg",
"gggggggggggggggggggggggggggggggggggggggggggggggggggggggggggggggg",
"gggggggggggggggggggggggggggggggggggggggggggggggggggggggggggggggg",
"gggggggggggggggggggggggggggggggggggggggggggggggggggggggggggggggg"
};
