/* XPM */
static char *result[] = {
/* columns rows colors chars-per-pixel */
"64 64 213 2 ",
"   c #020202",
".  c #0B0B0B",
"X  c #151515",
"o  c #271303",
"O  c #2A1605",
"+  c #2C1807",
"@  c #2E1A08",
"#  c #331A05",
"$  c #311D0A",
"%  c #311702",
"&  c #35210D",
"*  c #39240F",
"=  c #3D280F",
"-  c #3B2610",
";  c #3E2912",
":  c #292929",
">  c #393939",
",  c #4C2404",
"<  c #412A0B",
"1  c #422D14",
"2  c #432C18",
"3  c #463116",
"4  c #483317",
"5  c #4A3519",
"6  c #4E391A",
"7  c #59361A",
"8  c #523D1D",
"9  c #543713",
"0  c #4D3004",
"q  c #453E36",
"w  c #493F35",
"e  c #57411E",
"r  c #745213",
"t  c #564120",
"y  c #5A4422",
"u  c #5E4824",
"i  c #4C443A",
"p  c #574535",
"a  c #50483C",
"s  c #614C26",
"d  c #634E28",
"f  c #665029",
"g  c #6B562D",
"h  c #6E572B",
"j  c #745B2B",
"k  c #745E32",
"l  c #6F5A30",
"z  c #796335",
"x  c #7F642B",
"c  c #585858",
"v  c #676C6E",
"b  c #686D6E",
"n  c #646464",
"m  c #6E7375",
"M  c #717576",
"N  c #767A7A",
"B  c #797C7D",
"V  c #747778",
"C  c #8B4A1B",
"Z  c #8B4816",
"A  c #954C14",
"S  c #944F1A",
"D  c #984F16",
"F  c #94521B",
"G  c #9A541A",
"H  c #885611",
"J  c #A5561C",
"K  c #A8571C",
"L  c #AC5B1D",
"P  c #A4591E",
"I  c #B25A16",
"U  c #B25C1B",
"Y  c #B95F19",
"T  c #966915",
"R  c #A5651B",
"E  c #B4611E",
"W  c #BA641D",
"Q  c #BB691F",
"!  c #A97817",
"~  c #AE7A0D",
"^  c #86542C",
"/  c #885A36",
"(  c #905E38",
")  c #A35721",
"_  c #A65A22",
"`  c #AC5D22",
"'  c #B15F22",
"]  c #84693A",
"[  c #93653B",
"{  c #947536",
"}  c #936D2B",
"|  c #AE6224",
" . c #A76827",
".. c #B46323",
"X. c #B96421",
"o. c #B26825",
"O. c #BC6B23",
"+. c #B66B29",
"@. c #BB6C2A",
"#. c #B46629",
"$. c #BD752C",
"%. c #BC742B",
"&. c #B47535",
"*. c #A8742C",
"=. c #C3711E",
"-. c #C06E23",
";. c #C57923",
":. c #C1752B",
">. c #C3792B",
",. c #C47827",
"<. c #8D6746",
"1. c #946D44",
"2. c #976B43",
"3. c #9B744A",
"4. c #957257",
"5. c #8B6F53",
"6. c #A76D41",
"7. c #AA6E41",
"8. c #AE7141",
"9. c #A5794D",
"0. c #B17242",
"q. c #BB7D4C",
"w. c #B37A4D",
"e. c #A17553",
"r. c #8F7660",
"t. c #BB8310",
"y. c #B68A34",
"u. c #B68E2C",
"i. c #C68808",
"p. c #D69905",
"a. c #C89414",
"s. c #CF9512",
"d. c #DAA316",
"f. c #DBA30D",
"g. c #ECAC02",
"h. c #E5A605",
"j. c #F5B805",
"k. c #F4BA1A",
"l. c #E7B216",
"z. c #C9822E",
"x. c #CC9729",
"c. c #CB8631",
"v. c #CB8933",
"b. c #C59E3A",
"n. c #D19624",
"m. c #D7A62E",
"M. c #E9B726",
"N. c #E4B432",
"B. c #FEC91B",
"V. c #FDC616",
"C. c #FCC20B",
"Z. c #FFCC24",
"A. c #FDCD2C",
"S. c #F7CB36",
"D. c #B68D50",
"F. c #80807F",
"G. c #A88869",
"H. c #9F8643",
"J. c #C28C51",
"K. c #D7B04A",
"L. c #D6BC70",
"P. c #E3BC43",
"I. c #EBC64D",
"U. c #F1CC4A",
"Y. c #E5C257",
"T. c #FDDA5A",
"R. c #FFD94B",
"E. c #F7D866",
"W. c #E5CC77",
"Q. c #F4DA79",
"!. c #FFE16F",
"~. c #DEC772",
"^. c #7B7F80",
"/. c #7E8283",
"(. c #838585",
"). c #838788",
"_. c #86898A",
"`. c #8B8D8D",
"'. c #8A8984",
"]. c #8B8F90",
"[. c #8D9192",
"{. c #929495",
"}. c #939798",
"|. c #969A9B",
" X c #9A9C9D",
".X c #9C9A95",
"XX c #96948D",
"oX c #A29C8E",
"OX c #A29F96",
"+X c #A7A28F",
"@X c #A7A598",
"#X c #9B9EA0",
"$X c #9EA2A3",
"%X c #A2A5A5",
"&X c #A3A7A8",
"*X c #A6A9AA",
"=X c #AAACAC",
"-X c #A9A7A4",
";X c #ACAFB0",
":X c #ADB0B0",
">X c #B2B3B3",
",X c #B9BBBB",
"<X c #B3B2AD",
"1X c #C4BDB5",
"2X c #F6DE89",
"3X c #FCE491",
"4X c #CBC7BC",
"5X c #D5C693",
"6X c #BEC0C1",
"7X c #C4C5C5",
"8X c #CDCBC3",
"9X c #D1CEC3",
"0X c None",
/* pixels */
"0X0X0X0X0X0X0X0X0X0X0X0X0X0X0X0X0X0X0X0X0X0X0X0X0X0X0X0X0X0X0X0X0X0X0X0X0X0X0X0X0X0X0X0X0X0X0X0X0X0X0X0X0X0X0X0X0X0X0X0X{.0X0X0X",
"6X:X:X=X*X$X0X0X0X0X0X0X0X0X0X0X0X0X0X0X0X0X0X0X0X0X0X0X0X0X0X0X0X0X0X0X0X0X0X0X0X0X0X0X0X0X0X0X0X0X0X0X0X0X0X0X0X0X,X:X:X=X*X#X",
"8X,X,X:X:X=X0X0X0X0X0X0X0X0X0X0X0X0X0X0X0X0X0X0X0X0X0X0X0X0X0X0X0X0X0X0X0X0X0X0X0X0X0X0X0X0X0X0X0X0X0X0X0X0X0X0X0X0X7X6X,X=X>X$X",
",X*X*X{.[.{.1.)  .} %.>.>.>.$.>.$.$.>.>.>.$.>.$.$.>.$.>.$.$.>.$.$.$.$.>.$.$.$.$.$.$.$.$.$.$.>.$.$.$.$.$.$.$.$.$.:.J.:X=X%X`.|.[.",
":X|.}.].[._./ A S G U E ..E E E E E E E E E E E ..X.W W W W W W E X.X.U o...E U U X.U ..E E U E ....U X.U X.E W I q.$X}.[.[.[.).",
";X|.#X$X#X_.^ Z Z Z J K J K K J K J J J J P P P K K K K L L U U U U U ` U U U L ' U U U U E U E U E U W W U Y W Y D.*X|.$X$X X/.",
";X|.#X$X#X_.5.[ 2.[ 7.7.&.8.8.8.8.8.7.6.&.6.6.6.6.8.6.6.6.7.7.7.7.7.&.6.7.7.7.7.7.7.7.&.8.8.8.w.0.&.8.7.8.0.0.0.0.G.$X$X$X$X|./.",
";X#X&X|.{._.%X%X%X%X%X%X|. X$X%X$X$X$X%X}.#X$X$X$X$X$X-X|. X$X$X%X#X$X-X X|.$X$X$X$X$X%X|. X$X$X%X$X%X%X|.|. X X|.XX$X$X$X X|./.",
";X#X>X}._._.$X#X X$X=X>X`.[.$X$X$X$X;X:X[.[.$X$X$X$X=X>X[.[.$X$X$X$X&X,X}.`.$X$X$X$X:X:X[.[.$X$X$X$X=X:X[.[.$X X[.[.$X&X>X]._.(.",
";X}.#X].]._.$X X#X#X$X#X_.}.$X&X$X$X$X#X_.}.$X$X$X$X$X#X_.|.$X$X$X$X$X#X`.[.$X$X$X$X$X$X_.}.$X$X$X$X$X$X_.[.$X$X}.[.%X}.#X).].(.",
";X}.}.}.#X[.$X}.}.|.}.[.[.|.#X#X#X X|.{.{.|.#X X$X#X|.[.}.|.#X X|.#X|.}.[.}.#X X#X#X|.{.[. X X X$X#X X[.[. X X X|.{.%X{.[.|.#X_.",
"]././._._.).(./.^././././././././././././././././././././././././././././././././././././././././././././././.(./.(._.(._._._./.",
"b M M m m m m M M m M m M M M M m m m M m M M M m M m M m m M m M M V M M m V M m m m M M M m m m m M M M M M M m m m m M M m m ",
"v v v v v v b b b b b b v v v v v v v v v b b b v v v v v v b b v v b b v v b b v v b b v v b b v v v v v v v v b v v v v v v v ",
"p p p p p p w > i q q q q q i q i i i i i i i i i a a a a a a a i a a i i i i i i i i i i i i i i i i > q q q q q q p p p p p p ",
", , , , , , % o o o o o O O O + O @ @ @ & * * - - ; ; ; 3 < 1 3 3 1 1 1 1 1 1 - - - & $ $ @ O + o O O O o o o o o % , , , , , , ",
", , , , , , + o o O O O O @ + @ & & * - - ; ; 3 3 3 4 5 5 6 6 6 4 t ; e e ; 4 = ; ; ; ; - & & & @ @ O O O O O O O + , , , , , , ",
", , , , , , % o O O O O + @ @ & & & - ; ; 3 3 5 6 8 8 8 e e e e t e t t e e e e t 4 4 ; = = & & & @ @ @ + O O O O % , , , , , , ",
", , , , , , # O O O O @ @ @ & & * ; ; ; 5 6 t t e e u s s s s s f s s s e y y e t t 4 ; ; ; ; = & # @ @ + O O O o % , , , , , , ",
", , , , , , # o O + + @ $ & & - ; ; 5 t t e e u s h ! ~ ~ ! T ] k l l h g g f f u e t t 5 t 4 ; - & & & @ + O O O # , , , , , , ",
", , , , , , # O O + @ @ $ & = = ; 3 e t e u d g g T g.j.j.g.h.f.t.H.z z z z k k g d s y t e ; ; ; - & & O @ + O O $ , , , , , , ",
", , , , , , # O O + @ $ & = ; 3 5 5 t u d g g z z H m.Z.B.B.V.B.B.B.u.H.] { z z k l g d u t t ; 3 ; * * & @ @ O O $ , , , , , , ",
", , , , , , # O + @ @ & * ; ; 4 t t u f g j ! t.! ! R m.T.Q.!.!.E.R.E.K.t.t.t.H.{ x k g f u e e 4 ; ; * & @ @ + O # , , , , , , ",
", , , , , , # O + @ $ & - ; 3 4 t e d g l u.h.h.h.h.p.i.n.I.Q.3X3X2X~.B.j.g.g.g.f.u.{ k h f e e 6 3 ; - & @ @ O O # , , , , , , ",
", , , , , , $ + @ + $ - = ; e e t s h k z T l.Z.B.V.V.d.t.l.j.M.M.x.! M.A.Z.Z.Z.Z.B.N.H.z f s e t 6 ; - & $ $ + O # , , , , , , ",
", , , , , , $ # + $ $ - = 3 4 e f j x x } T  .N.T.E.Q.Y.*.J.U.U.Y.P.y.y.L.E.Q.Q.!.T.T.~.] l f u t 6 ; - * & $ + O # , , , , , , ",
", , , , , , $ + + & $ - 5 r ~ t.i.p.a.! s.h.p.i.K.8X9X9X4X1X4X9X4X9X4X1X4X7X<XL.2X2XW.K.a.} j j r r r 0 = $ @ @ + $ , , , , , , ",
", , , , , , # + + @ ; T f.g.g.C.j.C.g.! ! V.V.j.K.4X7X7X7X7X7X7X7X7X7X7X6X>X}.y.d.s.x.l.B.M.b.p.h.h.p.i.~ r = O + # , , , , , , ",
", , , , , , # 0 H T t.f.V.A.S.A.k.h.p.t.T a.U.R.~.,X>X=X>X<XOX[.XX-X:X<X;XOX[.u.h.l.S.E.T.R.T.S.C.C.C.C.j.k.a.r + # , , , , , , ",
"7 7 7 7 7 7 3 T h.h.f.f.d.m.I.W.x.a.a.a.i.R x.L.5X>X=X-X-X{.c : : M %X-X*X|.F.D.S.S.S.Y.K.Y.W.D.P.U.U.I.U.U.S.K.k 2 7 7 7 7 7 7 ",
"*X@X X X.XXX{.+X@X+X+X+X+X+X+X@X+X+X+X+X+X.XoXoX%X>X=X%X%XM X     : }.*X-X|.'.F.+X@X@X@XoXoX.X.X@X@X@X@X@X@X@X@X.X'.%XOXOX X.X'.",
">X&X&X$X%X[.%X|.#X#X$X#X|.#X#X#X#X#X|.$X X#X#X X#X>X=X-X%Xn .     . ).=X-X.X_.'.|.#X X#X|.|.$X|.$X$X|.$X|. X|.}.].[.;X&X&X$X#X).",
":X%X:X X}.]..X)._.]. X=X`.(.].[.].]. X=X`.).[.].{.>X=X%X%XN .     . {.=X-X|.(.N ].].#X;X`.).[.].].]. X*X`.).`._.B (.*X&X=X|.|.(.",
";X%X>X{.`.`.|.)._._.#X<X_./.[.[.[.`.$X:X'.F.].].{.>X=X%X-XOXc     n >X*X-X|.'.N _.].#X;X_.^.].].{.].$X:X_./.[.`././.&X=X:X`.[.(.",
":X#X#X[.{.[.}.).).]._.`.B (.[.].[.].`.`.^.(.[.].{.>X=X%X-X=X`.X : =X=X-X-X}.'.V _.].].].^.).].].].].`.`./.(.[._./.(.*X X X`.}.).",
":X$X&X$X$X[.[.(.^.(.(.(.(._.(.(.).).).(./._.).).{.>X=X%X-X-X{.> c >X-X*X-X}.'.M (._.(./.(.(.)._._._.).F./._._.].(._.*X%X%X%X%X).",
":X$X*X*X$X].<.[ ( ( [ <.[ [ 1.1.2.1.3.3.9.3.9.9.G.>X-X-X-X%X-X=X>X=X&X-X%X.X(.5.3.3.3.1.1.1.<.<.<.( ] / / / / / / r.*X%X*X*X$X).",
":X$X*X*X&X`./ A F G K L L | | | o.+.+.%.&.&.&.&.G.<X X.X|.#X#X XOX X X X X{.(.<.&.&.*.&.*.o.| | | ` | P _ ) J J J w.*X%X*X&X$X).",
":X$X*X*X&X`.^ A A D Y W W W W =.O.O.@.O.:.:.:.:.q..XF.F.(.(.(.).(.(.(.(.(.).(.2.%.>.:.:.@.:.O.-.X.W W W X.E W W Y q.*X%X&X*X$X_.",
":X$X*X$X#X].^ Z C F L L ..L ..o.o.o.+.+.@.@.&.&.&.2.<.2.1.2.2.2.2.2.1.3.2.2.3. .&.%.+.+.+.#.o.o.o.| | E ` | L L L w.*X$X&X$X$X).",
":X&X>X.X[.`.[ R  . .$.z.z.z.,.>.z.z.z.z.c.z.c.v.v.v.c.v.v.v.v.v.v.v.v.v.c.c.c.c.v.v.c.z.z.z.z.z.z.z.>.>.z.;.>.,.;.D.*X=X<X{.{.).",
":X$X:X{._.`.] G G G Q Q Q Q -.=.O.=.-.-.,.:.:.;.>.>.>.,.,.,.:.:.>.>.:.:.>.:.:.%.:.O.O.:.@.-.O.O.Q Q Q O.Q Q Q Q W q.*X*X=X_.].(.",
":X#X X[.|._.^ F S F ' ..W E o.o.o.X.o.@.@.@.@.@.+.@.@.@.:.:.:.:.:.@.@.@.#.#.#.#.#.#.o.....' ..' ..' ' ' ' ' ' ' Y w.-X#X X[.|.).",
":X$X&X&X%X`./ Z C C _ ` L P ` ` ` ` ` | ` | ` ' #.#.+.@.-.@.@.@.@.@.@.@.@.@.+.#.X.#.#.+.#...#...X.X.......X...X.W q.-X$X&X&X$X).",
":X$X*X*X%X[.^ C C C ) P _ _ _ _ ` _ _ _ ) _ _ _ _ `  .` | ` | | #.#.#...#...o.....#.......#.X.....X.....o.X.X.X.Y q.*X%X*X*X$X_.",
":X$X*X*X%X`.^ S F G E ..E X.E X.' ' ..` ` ` ` ` ` L ` ` ` #.' ..' ' ..` ..` ` ..' X.U X.X.X.X.X.X.X.X.X.W W W X.W D.*X%X*X*X$X).",
":X$X&X&X$X`.^ Z Z A I I I I I I I I I I I I I L I L I L U U I I U L I I L I L I I I I L I I I I I I I I I I I I I w.*X$X*X&X$X).",
":X$X;XOX|.`./ S F F | o...o.o...o.o...o.o.o.o.o.o.o.o.o.o.#.o.o.#.o.o.o.o.o...o.o.o.o...o...o.o.o.o...o.o.| o...E q.*X&X;X|.|.).",
":X$X>X}.`.`.} R R R ,.;.;.,.;.;.;.;.;.,.;.;.,.;.;.;.;.;.;.;.;.;.;.;.;.;.;.;.;.-.;.;.;.;.;.;.;.;.;.;.;.;.;.;.;.;.=.J.&X=X<X`.].(.",
":X$X%X[.[.`./ D C S U X.U X.E E ' X.Y X.E E E X.E E E E X.X.X.O.X.W -.-.W W -.-.Q W Y -.-.W W -.Q Q Q Q W -.-.Y =.q.&X$X$X`.}.(.",
":X$X#X#X$X`./ S F F ` ' ' ` ` ' ' ' ' ' ` ` ` ' ' ` ` ..' X.' ' X.X.X.X.' X.' ' ' ' ' ' U ' ' ' ' ' U ' ' ' ' ' I w.&X$X#X#X$X(.",
":X$X*X*X%X`./ G F F ....X...X.X.X.' ......X...' ' ' ..X.' X.X.' ..X.' ' ' ' ` ` _ ` _ _ _ _ _ _ _ ` _ _ ` _ _ ` K w.&X%X=X&X%X).",
":X$X*X*X$X].^ G S G ' X.X.' ..X.' ..X...' ' ' ' ' ` ` ` ` ` ` ` ` _ _ ` _ _ ) J ) ) ) ) _ _ _ ` ` ` ` ` ` ` ' ` ` w.=X%X=X*X#X_.",
":X$X*X=X$X].^ A D G Y ' Y W W Y X.Y Y U Y U U U U U ' ' U U U K U U U U L K L L U U U U Y ' Y ' Y Y ' Y Y Y Y ' Y q.*X#X&X*X%X).",
":X$X*X$X$X].r.4.4.4.3.e.e.e.e.e.e.e.e.e.e.e.e.e.e.3.e.3.e.e.e.e.e.e.e.e.e.e.e.e.e.e.e.e.3.e.e.e.e.e.e.e.e.e.e.3.e.G.=X%X&X%X#X).",
":X$X>X X}.{.$X#X#X#X#X|.|. X X X|.#X|.}.#X#X|. X|. X#X|.|.#X|.#X}.#X|.}.#X}.#X}.#X|.|.|.#X|. X X X|.|.|.|.|.|.{.].].&X*X:X}.}.).",
":X%X>X{._.`.}./.(._.`. X_.(.`._._._.}.{.(.)._._._._.{.{.(._._._._.).{.}.(./.].]._._.}.{.(.)._._._._.{.{.(.).)./.M ^.&X=X=X`.].(.",
":X X#X[.{.[.{.^.^.(.#X<X`.N (.(.)._.:X%XN (.).).(._.:X%XB /._.).).).&X=X(.r._./.)._.:X%XN (.).).(._.:X%XB /.(.^.M ^.&X#X X].}.).",
":X#X$X$X$X[.[.B ^./.].$X/.V (._.).(. X{.M F.).).).(.#X{.V /.).).).(.}.#X^.^./._.).(. X{.M F.).).).(.#X{.V /.)./.M ^.&X%X$X$X$X(.",
"}.].[.[.[._.{.B V ^.^.N V /././.(./.B N N (.(./.(.(.B V N (././././.^.N ^.^././.(./.B N N (.(./.(.(.B V N (.).(.N N [.].{.[.].(.",
"=X$X*X*X&X|._.N M N B B N B B B B B B N N B B B N B B N B B B B B B B ^.^.^.^.^.B B B N N B B B N B B N ^.B ^./.^._.&X%X=X=X%X].",
":X$X&X=X%X[.0X0X0X0X0X0X0X0X0X0X0X0X0X0X0X0X0X0X0X0X0X0X0X0X0X0X0X0X0X0X0X0X0X0X0X0X0X0X0X0X0X0X0X0X0X0X0X0X0X0X0X0X*X%X&X*X%X).",
":X$X$X*X*X[.0X0X0X0X0X0X0X0X0X0X0X0X0X0X0X0X0X0X0X0X0X0X0X0X0X0X0X0X0X0X0X0X0X0X0X0X0X0X0X0X0X0X0X0X0X0X0X0X0X0X0X0X*X#X%X*X%X).",
"$X[.[.|.|.`.0X0X0X0X0X0X0X0X0X0X0X0X0X0X0X0X0X0X0X0X0X0X0X0X0X0X0X0X0X0X0X0X0X0X0X0X0X0X0X0X0X0X0X0X0X0X0X0X0X0X0X0X#X].{.}.|.)."
};
