/* XPM */
static char *result[] = {
/* columns rows colors chars-per-pixel */
"64 64 74 1 ",
"  c #7F6144",
". c #805F40",
"X c #846344",
"o c #896645",
"O c #8F6946",
"+ c #846649",
"@ c #86694C",
"# c #8B6B4C",
"$ c #906A47",
"% c #926D4A",
"& c #96714D",
"* c #98734F",
"= c #8B6E52",
"- c #8D7154",
"; c #86725B",
": c #8E7459",
"> c #947353",
", c #9A7552",
"< c #977857",
"1 c #9D7955",
"2 c #91765A",
"3 c #997759",
"4 c #95795D",
"5 c #9D7C5B",
"6 c #A07F5D",
"7 c #8E7861",
"8 c #967C61",
"9 c #9A7E62",
"0 c #9F805F",
"q c #A1815E",
"w c #978067",
"e c #9D8165",
"r c #9F856B",
"t c #A48463",
"y c #A88764",
"u c #A78866",
"i c #A98966",
"p c #A1866A",
"a c #A4896D",
"s c #AC8C6A",
"d c #B08F6D",
"f c #AF906E",
"g c #B1916E",
"h c #A58C71",
"j c #AA8F72",
"k c #AD9274",
"l c #AD9379",
"z c #B49573",
"x c #B79876",
"c c #B89976",
"v c #B29679",
"b c #B5997B",
"n c #BC9D7B",
"m c #BFA07E",
"M c #C0A17F",
"N c #B69C81",
"B c #BA9F82",
"V c #BEA283",
"C c #BDA388",
"Z c #C4A583",
"A c #C7A886",
"S c #C8A987",
"D c #C2A789",
"F c #C6A98A",
"G c #CAAB89",
"H c #CEB08E",
"J c #C9AE91",
"K c #CEB192",
"L c #D1B597",
"P c #D2B89C",
"I c #D5BCA0",
"U c #D8C0A6",
"Y c #D9C2A9",
"T c None",
/* pixels */
"TTTUPPPPPPPPPPPPIPPPPPIPPPPPPPPPPPPPPPPPLPLPPPPPIIILPPPLPPPPLTTT",
"TYPKHGHHHGHHHGGHHGGGGGGGGGGGGGGGGGGGGGGGGGHGGGGGGGGGGHHHHGHHHKHT",
"TPGGGGGGGGGGGGGGGGGGGGSGGGGGSGSSGGAGGGSGGGAGGGGGGGGGGGGGGGGGGGHT",
"PLGGGGGGGGGGGGGGGSSSGSGSAAGGSGSAGGASAGGGAGGAGGGGGGGGGGGGGGGGGSAm",
"PGGGGGGGnnVAGGGGGSSGDGSGAAAAAAAAZGGAAAAGGSSGSGSGGGGGGGGGGGGGGGSx",
"LGGGGGGmpe9ZGGGGSSSSSSSZAAAAAAAAZAZAAAAZZGAGSSSSGGSGGGGGGGHGGGGl",
"LGGGGHGZp#2DGGGGSSSDSSDGAAAAZZZZZAZZZBjjvBAASSSAAGGSSGGGGGGGGGAj",
"HGGGGGGGFFGGSGSZVnbxxkvxbbmVZZZZZZZAnh9666ZAAAASGAAGGGGGGGGGGGGj",
"LGGGGGGGGGGGZbjhppppppppauaakkmmZZZZM6%o.:DZAAAAGZGGAZBVASSGGGSk",
"LGGGGGGGGGBlree961,&&,,,<5qqtaafcVMMMVj9jCGZZZZAZGZNhh6aajbAGGSl",
"HGGGGGGGAvhp63%$$$$$%$%%%%&*,5qyaznMVMZGAZVZZZZZZZl996,,16pzSGSk",
"LGGSGGGGvpp1>$$$$$$$$$$$$%%%&**566dnnMnMMMMZMMZZZZh6*&$%&*,6GGGk",
"HGGGGGGnuy6*%%$$$OO$$$$$$$%%%&**6,6cnmnnMnMMVMZZZZs*&&%*%&O:GGSl",
"LGGGGGSvu6**,%$$$OO$OOOO$$$$$%&*,,,innnnnMMMMMMZZZZa>.....-CJSSk",
"LGGGGSGbt16*&%%$$$$OOOO$OO$$%&&&,6%ancnncnMBMMVMMZZZVlapjNJHGSSk",
"HGGGGSGAs,6,,&%%$$$$$$OOOO$$OO$&,*olcxxxzzdgzcnMMZVDGGJJHJGGSSGk",
"HGGSGGSSZ6*,,,&&%%#%OO$$OOOO$%&&%+abzva999999pavMVZZZZZAAAAGGGAg",
"LGGGSSSSAZs>%&**&&&%%%%%%O%OOOo =lbzd99663336666dmMMZZZAAAGSAGGk",
"LGGSSGSZAAAVh3=#$%%%%%%$OOo..X:aNvddp961&%$$,>116MMZZZZZAASGGGAj",
"HGGSSZZZZZZZDDbj98:%##@@#=2walvzsssds6&&,&%%%&%o=VMMZZZAAASGGGAk",
"JGGZkhhhbZZMMMmZmVBnbbbvzvvzffssysssdi9-##o..#@8NVMMVnVBVZAAAGAj",
"LGGb953>5ZVVMnnccxxzzggdsssiyiyyyiyysigka9999hNVMnMnj6999jVAGGAj",
"HGGSh=+@9GZMMnnncxzgddjssssiyyyyyyyyyyssdzbnnccccnnd966663sGGSAl",
"HGGFGFDFGZMMMnncxxzzdsdsiiyytyyyttypyyyussdddzzccnnc6#.#o.aJAGAj",
"KGGGAASZZMMMmnncxzzddsspyqtyqqyqqqyqyyyyuiiaidjzgnmVVvh9jBJGAGZj",
"KGGGAAAAZZMmnnccxgzddy4222:<0qqqqqqtqy03338889899paxbZGGGJAAAGAk",
"JGGAAAAAZMMMnncxzzdds48513<><qqqqq6q4-:8896696566699pscZZZGGSGAj",
"JGGSAAAAZZMmnncczzddst>XXX. 0q0q6q6#:et<&$$$%%%%&,,366akVZZAGSAk",
"HGSSSZbvgkkzxccxzgddsss9228au0q105-8p6&&$$$$$$$%#%%%*166zZAAAAAj",
"KGGSvapp99p9pakxzgdssyiisuuq05555<2y1,**%%$$O$$$%%%&&1*16ZAAGGAk",
"KGGBap53*&,156pzzgdsiyyytq6q565551116***%%%$$$OO$$%%*,1,-DAAGSAj",
"HGGb6,*%%%%&&%%xzgddsyyqtqq50555105**6*&%%%$$$$$O$%%&,%@jGAAAAAl",
"GGGZj>#O$ooXX+unzgfssuyyqqq005555000<=%&%%%%%%%$$$OOo+=lJSAASGZj",
"KGGGGCkt4-28hNBczggssyyyqqqqqq150110te0=#+oooooXXX+@7kFFZZZASSGj",
"KGSASSGGFFDAZnczzgie<440qqq1105510000qtaaure989rrlbCGAMZZZSAAGSj",
"KGGGAAZZZZMnnncczu88854<qqqqq06501<<<00qyssgvxncbnnnnmMZZASAGGGj",
"KGGGSZSZZZnnnnczzs3#++X#yyqqq665--:42:><yuuiggggxncnMMMZZZAAAGZj",
"KGGASZZZZmMMnnccxzkt04wafqqqqq5-8t91<<5<5ussggzzxxnnmMMMZZAAAGDk",
"KGGAZGZZZZZnmnnxzzzzzzfiyyyqtq545,&$$$&%<sssdggcxnnnmMZZZSASSGSj",
"KGGAGGZZZMZmnncxxzggffsiiyyyqyq1&#&%Ooo 5gsdggzcxxnnMnxvnZSSSGSk",
"KGGSAAAZZZMmnnnxxzzgssssuuuyyyyyt2=+X+-pvsfgggzxcnnnVj99tZASSGZj",
"KGSGSASZZZZmmxzapte9e9e0tuuuyyyuussjjzkkssfgzzxxnnnMVc3+9DSSSGGk",
"KGGGGZSZZZmkar999e9teteee40tuuuiyuuusisssfggzzxxnnnMMZZDJGZSGGAj",
"KGFGGGSZAmarpt3>%%%%&**55te5yuiiusssssssggzzxxcnnnmmMZZSASSSSGDk",
"GGGSGSZSZkay1*&%$$$$%%&*,1166dssssdsddgggffsskzcnMMMZMZZAAGAGGAj",
"LGGGSSZSAk5111*&%$$$$%&&,,1*&gdgdgggggffee4weerudnMMMZZSAAAASGAk",
"LGGSSGGZAmq-*1,**%%$$$$&>*&+8cgggggggzs4ee51<5qttdMMZZZAASAGGGAl",
"HGGGGGSGAAZi<%%&&&%$$$ooX+=anvzggzzgggeaq*&$%&,166cZZZAAASGGGGAj",
"LGGGZZZSAASSZva8>===@@=:9lNVzczzzzxzcz661*,%$%*1,%jGZZSZSSGSGGSk",
"GGGnp9jGSASZZDGGDZBBBDZZDnnxxccccccxcbd1*1,&%%%,%+xGZZSSSSSSGGGk",
"LGGVu8xGSAAZZZZVMZMMVmnnnnnccnnxcccnnnnd2%&%$o.+=lFDSSSSSGSGSSAk",
"KGGGJJGGSSAAZZZZZMZMmMMmnnnncnnnnnnnnnnMBl94229kDFZSZSSGGSGGGSGk",
"KGGGGGGGSGSSSZSZZZZZZMmmMMMMMnmmmnmnmmmMVZAADFGGDASZSSSSSSGGGGSv",
"LGGGGGGGSGSDSSSZZZZMZMZmMMMMMMmBnnmMMMMMMZVZZZZAZAZSSSSGGGGGGGGk",
"HGGGGGGGGGGASSSZAAZZZMZZMMMMMnspp9icMMZMMZZZZAZZSASSSSSSGGGGGGSj",
"KGGGGGGGnxljjjkxnMZAZZZZZZZZMd8333>3MZZZZZZZZZSASSZZZSSGGGGGGGGj",
"LGGGGFbhprt999ppahcZSAAZZZZZZmt=@.=hFZZZZZSZASSAAvhhhjnAGGGGGGSk",
"LGGGFZap53,%%%%6156BSAAZAAZZADGDDFFJAZAAZASSSSSSbe91334VGGGGHGAv",
"HGGGGDs%$&%&%%$%%+@ZGAAAAAAAAZSSFAAAZAAASASSSSSSZu+..X2FGGGGGSAj",
"LGGGGGFx9=#+...o=rCJSSSSAASAAAZSFAAAGAAGSSSSSSSGGFCNNCKGGGHGGSAh",
"GGGGGSGHJJDBBBBDJKGGSGGGSSSSSSSZAAAAGAGADGGGGGGGGGGHGLGGGGGGGGV9",
"TZGGGGGGGGGHHHHGGGGGSSGSGSSGGGGGSGGGGAAGGGGGGGGGGGGGGGGGGGGGGSaT",
"TvnBDAZASSDDZDDAZDDZAZZDZZAADZZDZZZDZDZZZZADZZDAZASDDAAASAZZNp;T",
"TTTerrrrrpprpppprpprpprrrppprprppprrpppprprrpeprrppprrrrrrrr7TTT"
};
