/* XPM */
static char *result[] = {
/* columns rows colors chars-per-pixel */
"64 64 38 1 ",
"  c #464646",
". c #4C4C4C",
"X c #504F4F",
"o c #545353",
"O c #585757",
"+ c #5C5C5C",
"@ c #605F5F",
"# c #636363",
"$ c #6B6B6B",
"% c #706F6E",
"& c #747474",
"* c #787776",
"= c #7C7C7B",
"- c #848484",
"; c #888787",
": c #8C8C8C",
"> c #908F8F",
", c #8F9090",
"< c #939393",
"1 c #989797",
"2 c #999895",
"3 c #9C9C9C",
"4 c #A09F9F",
"5 c #9F9FA0",
"6 c #A4A4A4",
"7 c #A8A7A7",
"8 c #AAABA6",
"9 c #AAAAAA",
"0 c #B0AFAF",
"q c #B3B3B3",
"w c #B8B7B6",
"e c #BBBBB5",
"r c #BBBBBB",
"t c #BFC0B8",
"y c #C3C3C3",
"u c #CBCBCB",
"i c #D2D2D2",
"p c None",
/* pixels */
"ppperwwrwwwwwrwwqwwrwrrqrqrqqwwqwrwrqrqrtqqqrqqrqqqrqrqtqqrqqppp",
"ptwq09999909999999999999999999999999999999090099009090090999000p",
"pw9999999779999999999999999999696699699699699999999999999999999p",
"wq99993111369999999999699696696669669969699999999999999999999983",
"q999965wry51999999996999666666666666666696996999999999999999996<",
"q9999361=$$=699999699666666666666666669666696969999999999999999,",
"099996;#+@$*399969696666666666565566663566699689699669999999996,",
"09999979900q9999965<<<<3555555555555<:31<5666668963356999999999,",
"q9999999999999651,10rq953<,,<335555<,9t63,5666666,5t35699999996,",
"q9999999999963<<6ruiuyyyyrq951,13335<=$$@=655666,6u0;-599999997,",
"099999999951,3qyuuyuywrrryyyuy6,33335<=o$655555<9u6#X=999999997,",
"q99999965<19yuuyyyyyy0qqqqry9,$,5<3<135<55355531q1+ -0999999997,",
"099999955riiuyyyyyyyrq90qq6:&#$3<<11113333333551=+X,09999999997,",
"09999993quiuuyyyyyyyy095<=##$#-3<<<<<<<311133336633966699999997,",
"q9999993qwyuuyyyyyy0<&@Ooo+$#$<,<<,<<<<<<1133333566566697999997,",
"09999963wwqwryyyr6:$X....o+##=3,,,,<<,<<<1<3<333355566666999997,",
"09999963rt099q93=$o. ....O+++,,,,::,,,,,<<<<1113355566668668999,",
"q9999955rqq9:$+@o.......oOO+-<::;::,:,,,,<<<<113335555666333696,",
"09999656tq8-+oOO.......o.O&,,:::;::-:::=--:,<<1133335666625<199,",
"09999956t5=#@+OOo....o..#:<,:-----:;-==563,:-:;,,233555663-$-07,",
"q9999955,&$$###@oX....+-<,---------=&,yiyyyyr075<,,<356566-+599,",
"09996663=&#$$$$$#O. o&<,:---------*-0uuyrwtryyyyuyw13556663,097,",
"09969666851-&$###..#,,:---------=&5uiiuyrqqqqwrrty5-35555669796,",
"q9996666555551:&##:3,::-----===-=5ryyyyyr0q0qqqtr6;-<5355667699,",
"0969666555331313<1<::----=-======-=-:::--<8000qq5---,3355666796,",
"q996966555333<<,,,:::------==========-==&$&&=-<,==--;3445667786,",
"q99666555<,<11<<,,::------===========--==&#ooooO$----2555666677,",
"09966665,<6,::<,,,:-----======&&*=*====--=#+Oooo+%---,535666797,",
"q9966663<9965<:,:::----=====&==&&=&=====-=##++Ooo+$==;355566676,",
"099665553==*&%;<,::-:--*$==&&&&&&&&&==-==$###@@@OO+#&*335566796,",
"099966555,$ o-3,::---*&-95===&&&&&*=&==-=$###@@++o.Xo+:55666676,",
"0966956553=&33,,,::-=<quy-&=&&&&&&&&&===-;,::,::::;===<55566699,",
"q987665553353<,,:::=3t3=#@%=&&&&&&&=&&===--:-::,,11355555566676,",
"q96666555331<<<,:::-:$oX+#&==&&&&&&&====-==--::,,,<<11335566686,",
"0986666533111<<,:::-:--::--=&&&&&&&&=====-----::,,<113355566677,",
"0985356553331<<,,::-:---====&=&&&&&=====-=--::::,<<131335666697,",
"q9535<5553331<<<,:::------====&=&=======----:::,,<<1<,155666796,",
"06<95-,553333<<,,::::--========&=&=====-=----::,,<1<,3<15666697,",
"q95=oO=55531,,,,,,:-----=-============---=*---:,<<11,:=-3667696,",
"9995-396533:,5,-::::::----=-=&*&====-==&&:0y9<-:,1113:#=5666797,",
"q969996665,,rr093--:::------==7==-===&=<wuiyqw91:,<333366666996,",
"q99996665<,ryr9trt5,-=-:;--==:$$:==&=6yuuuiy0qww91,<35655669997,",
"999996663,ruyr0qqqrr03---;---&%,-=,qiiuyyyyy990qqq05,<566666997,",
"q9999665,riuyy9900qrrr9::;;;--,---6yiuiuyyyq55990qqqq5<15678997,",
"q999966,0iuuyrq59096,-#-,;;;;-;---:<5qyyuyyq5535690qqt063577996,",
"99997956iiuyyy03,=$###$1,:::::;;:-:,<,<39rq5,13556690qqr6399997,",
"q999993qyuuy0,$#ooo###<<,:::::::::-,<<<-=-=&=-<53356999,&<99996,",
"q999963rrr0-#ooXoo+#+-5,,,,,,:,:::,:<<<,-&$$$&*-,3351;&%$599999,",
"099996663,&+OooooO#@%5<<<<<,,,,,,,,:<<<,-&++@$$&=-:&#$$$&099999,",
"q999996<,-$#@+OoOO++<33<<<<<<<,<,,<<<<<<-#@+oO@#$%#O+$$$-099996,",
"q9999995-$####@OoO.-61<<3<<<<<<<<<<<<<<;&$$@@+OOO#++#$%$,099996,",
"99999999<-=&$##+X.#6535313<3<3<<<<3<<,-&&%$###@@+OO+#$%$5999999,",
"q999999999q996651,5633333331<33<3<313<:&$$&%$$$##+O@#%$$9999996,",
"q999999999966966666553533333333<13333355,=$$$%$$$#++#$$=9999999,",
"99999999999996966655655553<3333333333335665:&$$%$$$+###:q999996,",
"q999999999999796866665555,<<<35535335555555961-%$$$#@##19999999,",
"q999999999657777666666663<q53,<55555555566666696,&$++++69999999,",
"099999996333599999966666<583676<3556656666669669993=+X#99999999,",
"0999999933:==699966969666,&=&&==166666666667669999006-;09999996,",
"099999995,--,9999999969666-$ .%38666668666979999999990099999996:",
"99999999900q099999999969666%&5999669669677799999999999999999995=",
"p689999999999999999999999999q999969989999999999999999999999996;p",
"p215696666666666669666966666666666666666676766676666676866663;%p",
"ppp-------:--;---------------------------;-;----;-;--;------*ppp"
};
